<svg xmlns="http://www.w3.org/2000/svg" viewBox="0 0 192.8 128.02"><defs><style>.cls-1{fill:#fff;}</style></defs><title>Asset 2</title><g id="Layer_2" data-name="Layer 2"><g id="Layer_1-2" data-name="Layer 1"><path class="cls-1" d="M26.42,132.45H15.66v-65L4.75,74.18V63.05l10.91-7.27H26.42Z" transform="translate(-4.75 -5.22)"/><path class="cls-1" d="M71,94.38l0,1.9a8,8,0,0,1-4,3.56A16.17,16.17,0,0,1,60.64,101,16.88,16.88,0,0,1,51,98.17a18.29,18.29,0,0,1-6.46-7.88A28.57,28.57,0,0,1,42.24,78.5v0a29.46,29.46,0,0,1,2.51-12.71,17.62,17.62,0,0,1,7.33-8A23,23,0,0,1,63.65,55,22.61,22.61,0,0,1,75.2,57.78a18,18,0,0,1,7.3,8.12A29.91,29.91,0,0,1,85,78.72v0A39.54,39.54,0,0,1,84,87.55a53.6,53.6,0,0,1-3,9.25c-.21.46-.42.93-.64,1.4s-.44.94-.68,1.4L63.28,132.45H51.68Zm.5-6.65q2.77-3.42,2.77-9.65v0q0-6.06-2.77-9.39a9.62,9.62,0,0,0-7.83-3.32,9.68,9.68,0,0,0-7.88,3.32Q53,72,53,78.08v.06q0,6.21,2.77,9.62a9.56,9.56,0,0,0,7.88,3.4A9.46,9.46,0,0,0,71.48,87.73Z" transform="translate(-4.75 -5.22)"/><path class="cls-1" d="M112.64,133.24l-4.9-2.34a19.45,19.45,0,0,1-7.89-6.81,24.61,24.61,0,0,1-3.77-10.73h11a11.55,11.55,0,0,0,2.06,5.38,9.49,9.49,0,0,0,4.08,3.14,15.52,15.52,0,0,0,5.88,1q5.33,0,8.28-2.85t3-8v-2.32c0-3.83-.94-6.79-2.8-8.88S123,97.7,119.6,97.7h-5.43V87.47h5.43a9,9,0,0,0,7-2.69Q129,82.1,129,77.19V74.81a9.2,9.2,0,0,0-2.61-7q-2.61-2.47-7.41-2.48a11.19,11.19,0,0,0-4.9,1,9.46,9.46,0,0,0-3.67,3.16,14.57,14.57,0,0,0-2.19,5.36H97.35a27.86,27.86,0,0,1,4-10.76,19.36,19.36,0,0,1,7.41-6.8A22,22,0,0,1,119,55q9.92,0,15.35,5.22t5.43,14.71v1.26a16.56,16.56,0,0,1-3.11,10,17.59,17.59,0,0,1-8.81,6.23,15.59,15.59,0,0,1,9.73,6.17q3.45,4.8,3.45,12.23v1.27a23.64,23.64,0,0,1-2.58,11.44,17.08,17.08,0,0,1-7.51,7.22,26.18,26.18,0,0,1-11.9,2.48Z" transform="translate(-4.75 -5.22)"/><path class="cls-1" d="M183.52,94.38l-.06,1.9a7.93,7.93,0,0,1-4,3.56,16.08,16.08,0,0,1-6.3,1.13,16.86,16.86,0,0,1-9.65-2.8,18.22,18.22,0,0,1-6.46-7.88,28.41,28.41,0,0,1-2.29-11.79v0a29.46,29.46,0,0,1,2.5-12.71,17.68,17.68,0,0,1,7.33-8A23.07,23.07,0,0,1,176.19,55a22.54,22.54,0,0,1,11.54,2.79A18,18,0,0,1,195,65.9a29.91,29.91,0,0,1,2.5,12.82v0a40.09,40.09,0,0,1-1,8.78,53.64,53.64,0,0,1-3,9.25l-.63,1.4c-.21.48-.44.94-.69,1.4l-16.34,32.85H164.21Zm.5-6.65q2.76-3.42,2.77-9.65v0q0-6.06-2.77-9.39a11,11,0,0,0-15.72,0q-2.76,3.33-2.77,9.44v.06q0,6.21,2.77,9.62a9.59,9.59,0,0,0,7.89,3.4A9.49,9.49,0,0,0,184,87.73Z" transform="translate(-4.75 -5.22)"/><path class="cls-1" d="M53.7,5.22h3.59V30.78H53.7Zm5.21,25A4.79,4.79,0,0,1,57,27.91l.25-3.81a4.38,4.38,0,0,0,.42,2,2.94,2.94,0,0,0,1.22,1.27,4,4,0,0,0,1.94.44,3.51,3.51,0,0,0,2.75-1.08,4.4,4.4,0,0,0,1-3.05v-4a4.57,4.57,0,0,0-1-3.11,3.46,3.46,0,0,0-2.75-1.11,4,4,0,0,0-1.94.43,2.81,2.81,0,0,0-1.22,1.24,4.2,4.2,0,0,0-.42,2l-.37-3.52a6.31,6.31,0,0,1,2.16-2.47,5.32,5.32,0,0,1,3-.87,6.07,6.07,0,0,1,3.31.87,5.49,5.49,0,0,1,2.11,2.54,10.12,10.12,0,0,1,.72,4v4a9.73,9.73,0,0,1-.74,4,5.47,5.47,0,0,1-2.16,2.52,6.43,6.43,0,0,1-3.41.87A5.37,5.37,0,0,1,58.91,30.23Z" transform="translate(-4.75 -5.22)"/><path class="cls-1" d="M78.22,31l-1.79-.95a6.32,6.32,0,0,1-2.73-2.78,9.64,9.64,0,0,1-.94-4.44V20.81a10.82,10.82,0,0,1,.9-4.62,6.45,6.45,0,0,1,2.63-2.92,8.1,8.1,0,0,1,4.15-1,6.6,6.6,0,0,1,3.9,1.14,7.11,7.11,0,0,1,2.47,3.31,14.09,14.09,0,0,1,.85,5.18v1.2H75.36V20.21h8.89a6.14,6.14,0,0,0-1.15-3.47,3.25,3.25,0,0,0-2.66-1.24,3.9,3.9,0,0,0-3.16,1.34,5.76,5.76,0,0,0-1.11,3.78v2.32a4.78,4.78,0,0,0,1.19,3.48,4.55,4.55,0,0,0,3.39,1.21,5.57,5.57,0,0,0,2.17-.44A6.13,6.13,0,0,0,84.83,26l2.36,2.36a9.81,9.81,0,0,1-3,2,8.61,8.61,0,0,1-3.4.71Z" transform="translate(-4.75 -5.22)"/><path class="cls-1" d="M91.18,12.53h9.12v3.06H91.18Zm1.93-2.48a5.17,5.17,0,0,1,1.12-3.63,4.47,4.47,0,0,1,3.43-1.2h2.64V8.63H97.74A.89.89,0,0,0,97,9a1.79,1.79,0,0,0-.26,1V30.78H93.11Z" transform="translate(-4.75 -5.22)"/><path class="cls-1" d="M106.4,30.11a6.18,6.18,0,0,1-2.57-2.71,9.48,9.48,0,0,1-.89-4.3v-3a9.26,9.26,0,0,1,.89-4.25,6.14,6.14,0,0,1,2.57-2.69,9.42,9.42,0,0,1,8.12,0,6.16,6.16,0,0,1,2.58,2.69,9.39,9.39,0,0,1,.89,4.25v3a9.41,9.41,0,0,1-.89,4.26,6.18,6.18,0,0,1-2.58,2.7,9.33,9.33,0,0,1-8.12,0Zm7-3.65a4.86,4.86,0,0,0,1-3.31v-3a4.77,4.77,0,0,0-1-3.29,4.23,4.23,0,0,0-5.82,0,4.82,4.82,0,0,0-1,3.29v3a4.91,4.91,0,0,0,1,3.31,4.2,4.2,0,0,0,5.82,0Z" transform="translate(-4.75 -5.22)"/><path class="cls-1" d="M123.08,12.53h3.59V30.78h-3.59ZM131.92,16a4.29,4.29,0,0,0-1.67-.3,3.57,3.57,0,0,0-2.64.94,3.52,3.52,0,0,0-.94,2.61l-.37-3.52a6.81,6.81,0,0,1,2.18-2.54,5.16,5.16,0,0,1,3-.9,6.7,6.7,0,0,1,2.26.36,5.13,5.13,0,0,1,1.77,1.06l-2.34,3.17A3,3,0,0,0,131.92,16Z" transform="translate(-4.75 -5.22)"/><path class="cls-1" d="M143,31l-1.79-.95a6.32,6.32,0,0,1-2.73-2.78,9.64,9.64,0,0,1-.94-4.44V20.81a10.82,10.82,0,0,1,.9-4.62,6.51,6.51,0,0,1,2.63-2.92,8.1,8.1,0,0,1,4.15-1,6.6,6.6,0,0,1,3.9,1.14,7.11,7.11,0,0,1,2.47,3.31,14.09,14.09,0,0,1,.85,5.18v1.2h-12.3V20.21h8.89a6.14,6.14,0,0,0-1.15-3.47,3.25,3.25,0,0,0-2.66-1.24,3.9,3.9,0,0,0-3.16,1.34A5.76,5.76,0,0,0,141,20.62v2.32a4.78,4.78,0,0,0,1.19,3.48,4.56,4.56,0,0,0,3.4,1.21,5.56,5.56,0,0,0,2.16-.44A6.13,6.13,0,0,0,149.64,26L152,28.32a9.81,9.81,0,0,1-3,2,8.6,8.6,0,0,1-3.39.71Z" transform="translate(-4.75 -5.22)"/></g></g></svg>