<svg xmlns="http://www.w3.org/2000/svg" viewBox="0 0 1273.34 92.77"><defs><style>.cls-1{fill:#fff;}.cls-2{fill:#f40000;}.cls-3{fill:red;}.cls-4{fill:#f6ff3f;}</style></defs><title>Asset 1</title><g id="Layer_2" data-name="Layer 2"><g id="Layer_1-2" data-name="Layer 1"><path class="cls-1" d="M33.46,22.86a2.78,2.78,0,0,0,.65,2,2.38,2.38,0,0,0,1.83.69,2.5,2.5,0,0,0,1.82-.62,2.33,2.33,0,0,0,.64-1.77l.17,2.55a3.55,3.55,0,0,1-1.22,1.51,3.51,3.51,0,0,1-2.08.61,3.84,3.84,0,0,1-3.11-1.3,5.48,5.48,0,0,1-1.09-3.65V15.47h2.39Zm4.94-7.39h2.38V27.63H38.4Z" transform="translate(-4.39 -3.3)"/><path class="cls-1" d="M44.41,15.47H46.8V27.63H44.41Zm7.39,4.79a2.8,2.8,0,0,0-.67-2,2.88,2.88,0,0,0-3.69-.08,2.33,2.33,0,0,0-.64,1.74l-.24-2.34A4.24,4.24,0,0,1,48,15.89a3.54,3.54,0,0,1,2-.6,3.75,3.75,0,0,1,3.06,1.3,5.5,5.5,0,0,1,1.09,3.66v7.38H51.8Z" transform="translate(-4.39 -3.3)"/><path class="cls-1" d="M61.11,27.81l-1.19-.64a4.17,4.17,0,0,1-1.82-1.85,6.44,6.44,0,0,1-.63-3V21a7.25,7.25,0,0,1,.6-3.09A4.3,4.3,0,0,1,59.82,16a5.39,5.39,0,0,1,2.77-.67,4.36,4.36,0,0,1,2.6.76,4.72,4.72,0,0,1,1.65,2.21,9.37,9.37,0,0,1,.57,3.45v.8H59.2V20.59h5.93a4.12,4.12,0,0,0-.76-2.32,2.18,2.18,0,0,0-1.78-.82,2.55,2.55,0,0,0-2.1.89,3.79,3.79,0,0,0-.75,2.52V22.4a3.16,3.16,0,0,0,.8,2.32,3,3,0,0,0,2.26.81,3.63,3.63,0,0,0,1.44-.29,4.31,4.31,0,0,0,1.28-.82L67.09,26a6.46,6.46,0,0,1-2,1.34,5.7,5.7,0,0,1-2.26.48Z" transform="translate(-4.39 -3.3)"/><path class="cls-1" d="M70.69,15.47h2.39V27.63H70.69ZM78,20.26a2.88,2.88,0,0,0-.63-2,2.28,2.28,0,0,0-1.79-.71,2.46,2.46,0,0,0-1.81.63,2.29,2.29,0,0,0-.64,1.74l-.25-2.34a4.4,4.4,0,0,1,1.47-1.7,3.59,3.59,0,0,1,2-.6,3.92,3.92,0,0,1,2.18.58,3.7,3.7,0,0,1,1.38,1.69,6.82,6.82,0,0,1,.47,2.69v7.38H78Zm7.27,0a2.75,2.75,0,0,0-.67-2,2.45,2.45,0,0,0-1.87-.71,2.22,2.22,0,0,0-1.73.68,2.84,2.84,0,0,0-.61,1.93l-.48-2.35A4.75,4.75,0,0,1,81.38,16a3.55,3.55,0,0,1,2.08-.66,4.16,4.16,0,0,1,2.25.58,3.64,3.64,0,0,1,1.41,1.69,6.63,6.63,0,0,1,.49,2.69v7.38H85.22Z" transform="translate(-4.39 -3.3)"/><path class="cls-1" d="M91.24,15.47h2.39V32.58H91.24Zm3.47,11.79a3.17,3.17,0,0,1-1.24-1.54l.16-2.54a3,3,0,0,0,.28,1.33,2,2,0,0,0,.82.85,2.7,2.7,0,0,0,1.29.29,2.37,2.37,0,0,0,1.84-.72,3,3,0,0,0,.65-2V20.26a3,3,0,0,0-.65-2.07A2.31,2.31,0,0,0,96,17.45a2.7,2.7,0,0,0-1.29.28,1.91,1.91,0,0,0-.82.82,2.94,2.94,0,0,0-.28,1.31l-.24-2.34a4.16,4.16,0,0,1,1.44-1.65,3.51,3.51,0,0,1,2-.58,4,4,0,0,1,2.21.58,3.68,3.68,0,0,1,1.4,1.69,6.81,6.81,0,0,1,.48,2.69V22.9a6.55,6.55,0,0,1-.49,2.64A3.65,3.65,0,0,1,99,27.23a4.33,4.33,0,0,1-2.27.58A3.51,3.51,0,0,1,94.71,27.26Z" transform="translate(-4.39 -3.3)"/><path class="cls-1" d="M106.69,24.49a1.07,1.07,0,0,0,.19.69.66.66,0,0,0,.55.24h1.12v2.27h-1.41a2.67,2.67,0,0,1-2.1-.84,3.48,3.48,0,0,1-.74-2.38V10.59h2.39Z" transform="translate(-4.39 -3.3)"/><path class="cls-1" d="M113.2,27.19a4.1,4.1,0,0,1-1.71-1.81,6.33,6.33,0,0,1-.6-2.87v-2a6.16,6.16,0,0,1,.6-2.83,4,4,0,0,1,1.71-1.79,6.23,6.23,0,0,1,5.42,0,4,4,0,0,1,1.71,1.79,6.16,6.16,0,0,1,.6,2.83v2a6.25,6.25,0,0,1-.6,2.85,4.13,4.13,0,0,1-1.71,1.8,6.23,6.23,0,0,1-5.42,0Zm4.65-2.44a3.25,3.25,0,0,0,.69-2.21v-2a3.16,3.16,0,0,0-.69-2.19,2.8,2.8,0,0,0-3.88,0,3.16,3.16,0,0,0-.68,2.19v2a3.25,3.25,0,0,0,.68,2.21,2.8,2.8,0,0,0,3.88,0Z" transform="translate(-4.39 -3.3)"/><path class="cls-1" d="M122.57,15.47H125L128.74,26l-1.32,2.59Zm10.77,0-5.18,15a3.77,3.77,0,0,1-.74,1.32,2.62,2.62,0,0,1-1.13.69,5.47,5.47,0,0,1-1.64.22h-.48v-2.3h.48a1.83,1.83,0,0,0,1.06-.27,2.21,2.21,0,0,0,.69-.93l4.5-13.74Z" transform="translate(-4.39 -3.3)"/><path class="cls-1" d="M135.45,15.47h2.39V27.63h-2.39Zm7.26,4.79a2.88,2.88,0,0,0-.63-2,2.28,2.28,0,0,0-1.79-.71,2.49,2.49,0,0,0-1.82.63,2.32,2.32,0,0,0-.63,1.74l-.25-2.34a4.32,4.32,0,0,1,1.47-1.7,3.59,3.59,0,0,1,2-.6,3.92,3.92,0,0,1,2.18.58,3.7,3.7,0,0,1,1.38,1.69,7,7,0,0,1,.47,2.69v7.38h-2.39Zm7.27,0a2.8,2.8,0,0,0-.67-2,2.47,2.47,0,0,0-1.88-.71,2.21,2.21,0,0,0-1.72.68,2.79,2.79,0,0,0-.61,1.93l-.48-2.35A4.67,4.67,0,0,1,146.14,16a3.55,3.55,0,0,1,2.08-.66,4.13,4.13,0,0,1,2.24.58,3.65,3.65,0,0,1,1.42,1.69,6.63,6.63,0,0,1,.49,2.69v7.38H150Z" transform="translate(-4.39 -3.3)"/><path class="cls-1" d="M159.29,27.81l-1.19-.64a4.17,4.17,0,0,1-1.82-1.85,6.44,6.44,0,0,1-.63-3V21a7.25,7.25,0,0,1,.6-3.09A4.3,4.3,0,0,1,158,16a5.39,5.39,0,0,1,2.77-.67,4.36,4.36,0,0,1,2.6.76A4.72,4.72,0,0,1,165,18.26a9.37,9.37,0,0,1,.57,3.45v.8h-8.21V20.59h5.93a4.05,4.05,0,0,0-.77-2.32,2.15,2.15,0,0,0-1.77-.82,2.55,2.55,0,0,0-2.1.89,3.79,3.79,0,0,0-.75,2.52V22.4a3.16,3.16,0,0,0,.8,2.32,3,3,0,0,0,2.26.81,3.67,3.67,0,0,0,1.44-.29,4.31,4.31,0,0,0,1.28-.82L165.27,26a6.46,6.46,0,0,1-2,1.34,5.7,5.7,0,0,1-2.26.48Z" transform="translate(-4.39 -3.3)"/><path class="cls-1" d="M168.87,15.47h2.39V27.63h-2.39Zm7.38,4.79a2.75,2.75,0,0,0-.67-2,2.86,2.86,0,0,0-3.68-.08,2.29,2.29,0,0,0-.64,1.74L171,17.59a4.4,4.4,0,0,1,1.47-1.7,3.59,3.59,0,0,1,2-.6,3.78,3.78,0,0,1,3.07,1.3,5.55,5.55,0,0,1,1.08,3.66v7.38h-2.39Z" transform="translate(-4.39 -3.3)"/><path class="cls-1" d="M181.34,15.47h5.48v2.15h-5.48Zm1.94,11.41a3.66,3.66,0,0,1-.69-2.41V11.93H185V24.49a1.13,1.13,0,0,0,.18.69.59.59,0,0,0,.51.24h1.15v2.27h-1.38A2.66,2.66,0,0,1,183.28,26.88Z" transform="translate(-4.39 -3.3)"/><path class="cls-1" d="M200.54,27.63h-2.39V13.19l-2.42,1.49V12.21l2.42-1.62h2.39Z" transform="translate(-4.39 -3.3)"/><path class="cls-1" d="M210.45,19.17l0,.42a1.75,1.75,0,0,1-.88.79,3.54,3.54,0,0,1-1.4.25A3.74,3.74,0,0,1,206,20a4,4,0,0,1-1.43-1.75,6.31,6.31,0,0,1-.51-2.62h0a6.39,6.39,0,0,1,.56-2.82A3.9,3.9,0,0,1,206.24,11a5.13,5.13,0,0,1,2.58-.61,4.93,4.93,0,0,1,2.56.62,4,4,0,0,1,1.63,1.8,6.68,6.68,0,0,1,.55,2.85h0a9.22,9.22,0,0,1-.23,1.95,12.37,12.37,0,0,1-.67,2.06c0,.1-.09.2-.14.31l-.15.31-3.64,7.3h-2.57Zm.11-1.48a3.31,3.31,0,0,0,.61-2.14h0a3.18,3.18,0,0,0-.61-2.09,2.15,2.15,0,0,0-1.74-.74,2.17,2.17,0,0,0-1.76.74,3.19,3.19,0,0,0-.61,2.1h0a3.31,3.31,0,0,0,.61,2.14,2.16,2.16,0,0,0,1.76.76A2.11,2.11,0,0,0,210.56,17.69Z" transform="translate(-4.39 -3.3)"/><path class="cls-1" d="M219.7,27.81l-1.09-.52a4.37,4.37,0,0,1-1.75-1.52,5.49,5.49,0,0,1-.84-2.38h2.44a2.5,2.5,0,0,0,.46,1.19,2,2,0,0,0,.91.7,3.43,3.43,0,0,0,1.3.23,2.54,2.54,0,0,0,1.84-.63,2.35,2.35,0,0,0,.66-1.78v-.52a2.87,2.87,0,0,0-.62-2,2.23,2.23,0,0,0-1.76-.7H220V17.63h1.21A2,2,0,0,0,222.8,17a2.44,2.44,0,0,0,.55-1.69v-.53a2.08,2.08,0,0,0-.58-1.56,2.35,2.35,0,0,0-1.65-.55,2.53,2.53,0,0,0-1.09.23,2.08,2.08,0,0,0-.81.7,3.14,3.14,0,0,0-.49,1.19H216.3a6.36,6.36,0,0,1,.89-2.39,4.34,4.34,0,0,1,1.65-1.51,4.91,4.91,0,0,1,2.28-.51,4.68,4.68,0,0,1,3.41,1.16,4.29,4.29,0,0,1,1.21,3.27v.28a3.66,3.66,0,0,1-.69,2.22,3.9,3.9,0,0,1-2,1.39,3.45,3.45,0,0,1,2.16,1.37,4.54,4.54,0,0,1,.77,2.72v.28a5.27,5.27,0,0,1-.57,2.54,3.88,3.88,0,0,1-1.67,1.61,6,6,0,0,1-2.65.55Z" transform="translate(-4.39 -3.3)"/><path class="cls-1" d="M229.16,25.56l5.94-7.93a5.54,5.54,0,0,0,.8-1.41,3.58,3.58,0,0,0,.29-1.36v0a2.07,2.07,0,0,0-.6-1.58,2.39,2.39,0,0,0-1.7-.56,2.33,2.33,0,0,0-1.68.61,2.83,2.83,0,0,0-.79,1.74v0H229v0a6.43,6.43,0,0,1,.86-2.5A4.31,4.31,0,0,1,231.49,11a5.06,5.06,0,0,1,2.38-.54,5.88,5.88,0,0,1,2.6.52,3.61,3.61,0,0,1,1.64,1.52,4.74,4.74,0,0,1,.57,2.4h0a5.35,5.35,0,0,1-.38,1.89,8.38,8.38,0,0,1-1,1.89l-4.94,6.71h6.45v2.27h-9.61Z" transform="translate(-4.39 -3.3)"/><path class="cls-2" d="M10.56,94.81a10.31,10.31,0,0,1-4.07-3.66,14.57,14.57,0,0,1-2.1-5.77v0h6v0A5.56,5.56,0,0,0,12.25,89a6.05,6.05,0,0,0,4,1.3,5.42,5.42,0,0,0,4.44-1.92A8.35,8.35,0,0,0,22.29,83V79.43a8.3,8.3,0,0,0-1.56-5.37,5.42,5.42,0,0,0-4.44-1.92,5.61,5.61,0,0,0-3,.88,8.17,8.17,0,0,0-2.52,2.46H5.33V53H27v5.68H11.31V68.3a8.73,8.73,0,0,1,2.49-1.41,8.23,8.23,0,0,1,2.81-.49,12.29,12.29,0,0,1,6.31,1.52,9.79,9.79,0,0,1,4,4.45,16.65,16.65,0,0,1,1.36,7.06V83a16.31,16.31,0,0,1-1.4,7.06,10,10,0,0,1-4.11,4.47,12.88,12.88,0,0,1-6.47,1.53A12.58,12.58,0,0,1,10.56,94.81Z" transform="translate(-4.39 -3.3)"/><path class="cls-2" d="M36.33,89.37H42.6v6.26H36.33Z" transform="translate(-4.39 -3.3)"/><path class="cls-2" d="M55.22,94.57a9.83,9.83,0,0,1-4-4.4,15.85,15.85,0,0,1-1.39-7v0a23.94,23.94,0,0,1,.55-5,28.91,28.91,0,0,1,1.61-5.12c.12-.3.25-.58.38-.87l.41-.83L62,53h6.45L57.57,74.28l0-1.06a5.13,5.13,0,0,1,2.14-2.14A6.85,6.85,0,0,1,63,70.32a10.42,10.42,0,0,1,5.68,1.5,9.28,9.28,0,0,1,3.6,4.35A17.11,17.11,0,0,1,73.54,83v0a16.26,16.26,0,0,1-1.4,7,9.74,9.74,0,0,1-4.07,4.45,12.77,12.77,0,0,1-6.43,1.52A12.91,12.91,0,0,1,55.22,94.57Zm10.8-6a7.34,7.34,0,0,0,1.54-5v0A8.48,8.48,0,0,0,66,78a5.64,5.64,0,0,0-4.6-2,4.84,4.84,0,0,0-4.13,2,9.07,9.07,0,0,0-1.47,5.53v0a7.3,7.3,0,0,0,1.54,5,5.51,5.51,0,0,0,4.35,1.74A5.48,5.48,0,0,0,66,88.57Z" transform="translate(-4.39 -3.3)"/><path class="cls-2" d="M97.85,65.22h6V95.63h-6Zm18.17,12a7.16,7.16,0,0,0-1.59-5A5.69,5.69,0,0,0,110,70.47,6.27,6.27,0,0,0,105.42,72a5.83,5.83,0,0,0-1.59,4.37l-.62-5.86a10.91,10.91,0,0,1,3.68-4.25,8.9,8.9,0,0,1,5-1.49,9.83,9.83,0,0,1,5.45,1.45,9.08,9.08,0,0,1,3.45,4.23A17.07,17.07,0,0,1,122,77.18V95.63h-6Zm18.16,0a7,7,0,0,0-1.67-5,6.13,6.13,0,0,0-4.69-1.76,5.48,5.48,0,0,0-4.3,1.7A6.92,6.92,0,0,0,122,77l-1.2-5.86a11.69,11.69,0,0,1,3.79-4.67,8.91,8.91,0,0,1,5.21-1.65,10.41,10.41,0,0,1,5.61,1.45,9.06,9.06,0,0,1,3.54,4.23,16.69,16.69,0,0,1,1.22,6.71V95.63h-6Z" transform="translate(-4.39 -3.3)"/><path class="cls-2" d="M149.24,53h6v6h-6Zm0,12.18h6V95.63h-6Z" transform="translate(-4.39 -3.3)"/><path class="cls-2" d="M170.27,87.78a2.63,2.63,0,0,0,.49,1.72,1.64,1.64,0,0,0,1.36.6h2.81v5.68h-3.51a6.63,6.63,0,0,1-5.26-2.11,8.69,8.69,0,0,1-1.86-6V53h6Z" transform="translate(-4.39 -3.3)"/><path class="cls-2" d="M187.65,87.78a2.69,2.69,0,0,0,.48,1.72,1.65,1.65,0,0,0,1.36.6h2.81v5.68h-3.51a6.63,6.63,0,0,1-5.26-2.11,8.69,8.69,0,0,1-1.86-6V53h6Z" transform="translate(-4.39 -3.3)"/><path class="cls-2" d="M199,53h6v6h-6Zm0,12.18h6V95.63h-6Z" transform="translate(-4.39 -3.3)"/><path class="cls-2" d="M219,94.52A10.26,10.26,0,0,1,214.7,90a16.06,16.06,0,0,1-1.48-7.17v-5a15.67,15.67,0,0,1,1.48-7.07A10.24,10.24,0,0,1,219,66.32a15.74,15.74,0,0,1,13.54,0,10.24,10.24,0,0,1,4.29,4.49,15.54,15.54,0,0,1,1.48,7.07v5a15.61,15.61,0,0,1-1.48,7.1,10.26,10.26,0,0,1-4.29,4.5,15.56,15.56,0,0,1-13.54,0Zm11.62-6.09a8.13,8.13,0,0,0,1.71-5.51v-5a8,8,0,0,0-1.71-5.48,7.06,7.06,0,0,0-9.7,0,8,8,0,0,0-1.71,5.48v5a8.13,8.13,0,0,0,1.71,5.51,7,7,0,0,0,9.7,0Z" transform="translate(-4.39 -3.3)"/><path class="cls-2" d="M246.8,65.22h6V95.63h-6Zm18.45,12a6.91,6.91,0,0,0-1.67-5,6.11,6.11,0,0,0-4.68-1.76A6.24,6.24,0,0,0,254.37,72a5.84,5.84,0,0,0-1.6,4.37l-.61-5.86a10.89,10.89,0,0,1,3.67-4.25,8.94,8.94,0,0,1,5-1.49A9.43,9.43,0,0,1,268.52,68q2.72,3.24,2.71,9.16V95.63h-6Z" transform="translate(-4.39 -3.3)"/><path class="cls-1" d="M378.71,22.86a2.83,2.83,0,0,0,.65,2,2.41,2.41,0,0,0,1.84.69,2.47,2.47,0,0,0,1.81-.62,2.33,2.33,0,0,0,.65-1.77l.16,2.55a3.55,3.55,0,0,1-1.22,1.51,3.47,3.47,0,0,1-2.07.61,3.82,3.82,0,0,1-3.11-1.3,5.49,5.49,0,0,1-1.1-3.65V15.47h2.39Zm5-7.39H386V27.63h-2.38Z" transform="translate(-4.39 -3.3)"/><path class="cls-1" d="M389.67,15.47h2.39V27.63h-2.39Zm7.38,4.79a2.75,2.75,0,0,0-.67-2,2.86,2.86,0,0,0-3.68-.08,2.29,2.29,0,0,0-.64,1.74l-.25-2.34a4.4,4.4,0,0,1,1.47-1.7,3.59,3.59,0,0,1,2-.6,3.78,3.78,0,0,1,3.07,1.3,5.55,5.55,0,0,1,1.08,3.66v7.38h-2.39Z" transform="translate(-4.39 -3.3)"/><path class="cls-1" d="M406.37,27.81l-1.2-.64a4.28,4.28,0,0,1-1.82-1.85,6.44,6.44,0,0,1-.63-3V21a7.1,7.1,0,0,1,.61-3.09A4.24,4.24,0,0,1,405.08,16a5.35,5.35,0,0,1,2.76-.67,4.4,4.4,0,0,1,2.61.76,4.77,4.77,0,0,1,1.64,2.21,9.37,9.37,0,0,1,.57,3.45v.8h-8.2V20.59h5.93a4.13,4.13,0,0,0-.77-2.32,2.15,2.15,0,0,0-1.78-.82,2.58,2.58,0,0,0-2.1.89,3.79,3.79,0,0,0-.74,2.52V22.4a3.15,3.15,0,0,0,.79,2.32,3,3,0,0,0,2.26.81,3.72,3.72,0,0,0,1.45-.29,4.26,4.26,0,0,0,1.27-.82L412.34,26a6.42,6.42,0,0,1-2,1.34,5.75,5.75,0,0,1-2.27.48Z" transform="translate(-4.39 -3.3)"/><path class="cls-1" d="M415.94,15.47h2.39V27.63h-2.39Zm7.27,4.79a2.83,2.83,0,0,0-.64-2,2.28,2.28,0,0,0-1.79-.71,2.48,2.48,0,0,0-1.81.63,2.29,2.29,0,0,0-.64,1.74l-.24-2.34a4.24,4.24,0,0,1,1.47-1.7,3.54,3.54,0,0,1,2-.6,3.94,3.94,0,0,1,2.18.58,3.62,3.62,0,0,1,1.37,1.69,6.81,6.81,0,0,1,.48,2.69v7.38h-2.39Zm7.26,0a2.75,2.75,0,0,0-.67-2,2.45,2.45,0,0,0-1.87-.71,2.19,2.19,0,0,0-1.72.68,2.79,2.79,0,0,0-.61,1.93l-.48-2.35A4.73,4.73,0,0,1,426.63,16a3.57,3.57,0,0,1,2.08-.66,4.14,4.14,0,0,1,2.25.58,3.71,3.71,0,0,1,1.42,1.69,6.81,6.81,0,0,1,.48,2.69v7.38h-2.39Z" transform="translate(-4.39 -3.3)"/><path class="cls-1" d="M436.5,15.47h2.39V32.58H436.5ZM440,27.26a3.22,3.22,0,0,1-1.24-1.54l.17-2.54a2.84,2.84,0,0,0,.28,1.33,2,2,0,0,0,.81.85,2.74,2.74,0,0,0,1.3.29,2.33,2.33,0,0,0,1.83-.72,3,3,0,0,0,.65-2V20.26a3,3,0,0,0-.65-2.07,2.28,2.28,0,0,0-1.83-.74,2.74,2.74,0,0,0-1.3.28,1.94,1.94,0,0,0-.81.82,2.81,2.81,0,0,0-.28,1.31l-.25-2.34a4.32,4.32,0,0,1,1.44-1.65,3.55,3.55,0,0,1,2-.58,4,4,0,0,1,2.21.58,3.68,3.68,0,0,1,1.4,1.69,6.81,6.81,0,0,1,.48,2.69V22.9a6.38,6.38,0,0,1-.49,2.64,3.69,3.69,0,0,1-1.44,1.69,4.33,4.33,0,0,1-2.27.58A3.56,3.56,0,0,1,440,27.26Z" transform="translate(-4.39 -3.3)"/><path class="cls-1" d="M451.94,24.49a1.13,1.13,0,0,0,.19.69.68.68,0,0,0,.55.24h1.12v2.27h-1.4a2.68,2.68,0,0,1-2.11-.84,3.53,3.53,0,0,1-.74-2.38V10.59h2.39Z" transform="translate(-4.39 -3.3)"/><path class="cls-1" d="M458.46,27.19a4.13,4.13,0,0,1-1.72-1.81,6.47,6.47,0,0,1-.59-2.87v-2a6.29,6.29,0,0,1,.59-2.83,4,4,0,0,1,1.72-1.79,6.21,6.21,0,0,1,5.41,0,4.08,4.08,0,0,1,1.72,1.79,6.29,6.29,0,0,1,.59,2.83v2a6.38,6.38,0,0,1-.59,2.85,4.21,4.21,0,0,1-1.72,1.8,6.21,6.21,0,0,1-5.41,0Zm4.64-2.44a3.25,3.25,0,0,0,.69-2.21v-2a3.16,3.16,0,0,0-.69-2.19,2.43,2.43,0,0,0-1.94-.78,2.46,2.46,0,0,0-1.94.78,3.21,3.21,0,0,0-.68,2.19v2a3.3,3.3,0,0,0,.68,2.21,2.46,2.46,0,0,0,1.94.78A2.43,2.43,0,0,0,463.1,24.75Z" transform="translate(-4.39 -3.3)"/><path class="cls-1" d="M467.82,15.47h2.44L474,26l-1.33,2.59Zm10.77,0-5.18,15a3.62,3.62,0,0,1-.74,1.32,2.59,2.59,0,0,1-1.12.69,5.56,5.56,0,0,1-1.64.22h-.48v-2.3h.48a1.85,1.85,0,0,0,1.06-.27,2.12,2.12,0,0,0,.68-.93l4.5-13.74Z" transform="translate(-4.39 -3.3)"/><path class="cls-1" d="M480.7,15.47h2.39V27.63H480.7ZM488,20.26a2.88,2.88,0,0,0-.63-2,2.28,2.28,0,0,0-1.79-.71,2.46,2.46,0,0,0-1.81.63,2.29,2.29,0,0,0-.64,1.74l-.25-2.34a4.4,4.4,0,0,1,1.47-1.7,3.59,3.59,0,0,1,2-.6,3.9,3.9,0,0,1,2.18.58,3.64,3.64,0,0,1,1.38,1.69,6.81,6.81,0,0,1,.48,2.69v7.38H488Zm7.27,0a2.75,2.75,0,0,0-.67-2,2.45,2.45,0,0,0-1.87-.71,2.23,2.23,0,0,0-1.73.68,2.84,2.84,0,0,0-.6,1.93l-.48-2.35A4.65,4.65,0,0,1,491.39,16a3.55,3.55,0,0,1,2.08-.66,4.14,4.14,0,0,1,2.25.58,3.64,3.64,0,0,1,1.41,1.69,6.63,6.63,0,0,1,.49,2.69v7.38h-2.39Z" transform="translate(-4.39 -3.3)"/><path class="cls-1" d="M504.55,27.81l-1.2-.64a4.23,4.23,0,0,1-1.82-1.85,6.44,6.44,0,0,1-.63-3V21a7.1,7.1,0,0,1,.61-3.09A4.24,4.24,0,0,1,503.26,16a5.35,5.35,0,0,1,2.76-.67,4.4,4.4,0,0,1,2.61.76,4.77,4.77,0,0,1,1.64,2.21,9.37,9.37,0,0,1,.57,3.45v.8h-8.2V20.59h5.93a4.13,4.13,0,0,0-.77-2.32,2.15,2.15,0,0,0-1.78-.82,2.58,2.58,0,0,0-2.1.89,3.79,3.79,0,0,0-.74,2.52V22.4a3.15,3.15,0,0,0,.79,2.32,3,3,0,0,0,2.26.81,3.72,3.72,0,0,0,1.45-.29,4.26,4.26,0,0,0,1.27-.82L510.52,26a6.42,6.42,0,0,1-2,1.34,5.75,5.75,0,0,1-2.27.48Z" transform="translate(-4.39 -3.3)"/><path class="cls-1" d="M514.12,15.47h2.39V27.63h-2.39Zm7.38,4.79a2.8,2.8,0,0,0-.66-2,2.88,2.88,0,0,0-3.69-.08,2.29,2.29,0,0,0-.64,1.74l-.24-2.34a4.24,4.24,0,0,1,1.47-1.7,3.54,3.54,0,0,1,2-.6,3.75,3.75,0,0,1,3.06,1.3,5.55,5.55,0,0,1,1.08,3.66v7.38H521.5Z" transform="translate(-4.39 -3.3)"/><path class="cls-1" d="M526.59,15.47h5.48v2.15h-5.48Zm1.94,11.41a3.66,3.66,0,0,1-.69-2.41V11.93h2.39V24.49a1.13,1.13,0,0,0,.18.69.61.61,0,0,0,.52.24h1.14v2.27h-1.38A2.68,2.68,0,0,1,528.53,26.88Z" transform="translate(-4.39 -3.3)"/><path class="cls-1" d="M545.8,27.63h-2.39V13.19L541,14.68V12.21l2.43-1.62h2.39Z" transform="translate(-4.39 -3.3)"/><path class="cls-1" d="M555.7,19.17v.42a1.77,1.77,0,0,1-.89.79,3.5,3.5,0,0,1-1.4.25,3.71,3.71,0,0,1-2.14-.62,4,4,0,0,1-1.44-1.75,6.31,6.31,0,0,1-.51-2.62h0a6.53,6.53,0,0,1,.56-2.82A3.87,3.87,0,0,1,551.5,11a5.07,5.07,0,0,1,2.57-.61,5,5,0,0,1,2.57.62,4,4,0,0,1,1.62,1.8,6.67,6.67,0,0,1,.56,2.85h0a8.65,8.65,0,0,1-.24,1.95,11.51,11.51,0,0,1-.67,2.06c0,.1-.09.2-.14.31a1.77,1.77,0,0,1-.15.31L554,27.63h-2.58Zm.11-1.48a3.31,3.31,0,0,0,.62-2.14h0a3.18,3.18,0,0,0-.62-2.09,2.43,2.43,0,0,0-3.49,0,3.19,3.19,0,0,0-.62,2.1h0a3.31,3.31,0,0,0,.62,2.14,2.14,2.14,0,0,0,1.75.76A2.11,2.11,0,0,0,555.81,17.69Z" transform="translate(-4.39 -3.3)"/><path class="cls-1" d="M565,27.81l-1.09-.52a4.3,4.3,0,0,1-1.75-1.52,5.24,5.24,0,0,1-.84-2.38h2.43a2.72,2.72,0,0,0,.46,1.19,2.09,2.09,0,0,0,.91.7,3.48,3.48,0,0,0,1.31.23,2.55,2.55,0,0,0,1.84-.63,2.39,2.39,0,0,0,.65-1.78v-.52a2.82,2.82,0,0,0-.62-2,2.21,2.21,0,0,0-1.76-.7h-1.2V17.63h1.2a2,2,0,0,0,1.55-.59,2.39,2.39,0,0,0,.55-1.69v-.53a2,2,0,0,0-.58-1.56,2.32,2.32,0,0,0-1.64-.55,2.53,2.53,0,0,0-1.09.23,2,2,0,0,0-.82.7,3.49,3.49,0,0,0-.49,1.19h-2.42a6.19,6.19,0,0,1,.88-2.39,4.49,4.49,0,0,1,1.65-1.51,5,5,0,0,1,2.29-.51,4.72,4.72,0,0,1,3.41,1.16,4.33,4.33,0,0,1,1.2,3.27v.28a3.66,3.66,0,0,1-.69,2.22,3.86,3.86,0,0,1-2,1.39,3.5,3.5,0,0,1,2.17,1.37,4.53,4.53,0,0,1,.76,2.72v.28a5.27,5.27,0,0,1-.57,2.54A3.82,3.82,0,0,1,569,27.26a5.92,5.92,0,0,1-2.64.55Z" transform="translate(-4.39 -3.3)"/><path class="cls-1" d="M577.65,27.81l-1.09-.52a4.3,4.3,0,0,1-1.75-1.52,5.49,5.49,0,0,1-.84-2.38h2.44a2.6,2.6,0,0,0,.45,1.19,2.09,2.09,0,0,0,.91.7,3.48,3.48,0,0,0,1.31.23,2.55,2.55,0,0,0,1.84-.63,2.35,2.35,0,0,0,.65-1.78v-.52a2.82,2.82,0,0,0-.62-2,2.2,2.2,0,0,0-1.75-.7H578V17.63h1.21a2,2,0,0,0,1.54-.59,2.39,2.39,0,0,0,.55-1.69v-.53a2,2,0,0,0-.58-1.56,2.3,2.3,0,0,0-1.64-.55,2.53,2.53,0,0,0-1.09.23,2.11,2.11,0,0,0-.82.7,3.3,3.3,0,0,0-.48,1.19h-2.43a6.35,6.35,0,0,1,.88-2.39,4.49,4.49,0,0,1,1.65-1.51,5,5,0,0,1,2.29-.51,4.7,4.7,0,0,1,3.41,1.16,4.33,4.33,0,0,1,1.2,3.27v.28a3.66,3.66,0,0,1-.69,2.22,3.87,3.87,0,0,1-2,1.39,3.47,3.47,0,0,1,2.16,1.37,4.53,4.53,0,0,1,.76,2.72v.28a5.27,5.27,0,0,1-.57,2.54,3.82,3.82,0,0,1-1.67,1.61,5.92,5.92,0,0,1-2.64.55Z" transform="translate(-4.39 -3.3)"/><path class="cls-3" d="M349.06,83.92l14.3-30.85h6.15L355.57,83.56h20.89V89.1h-27.4Zm18.37-13.34h5.83V95.66h-5.83Z" transform="translate(-4.39 -3.3)"/><path class="cls-3" d="M383.05,89.36h6.27v6.27h-6.27Z" transform="translate(-4.39 -3.3)"/><path class="cls-3" d="M403.06,94.61a10.72,10.72,0,0,1-4.53-4.15,12,12,0,0,1-1.6-6.22v-.71a12,12,0,0,1,1.6-6,10.75,10.75,0,0,1,4.26-4.25,9.28,9.28,0,0,1-3.61-3.56,9.56,9.56,0,0,1-1.37-4.91v-1a11.33,11.33,0,0,1,1.5-5.88A10.07,10.07,0,0,1,403.53,54a15.09,15.09,0,0,1,12.65,0,10.13,10.13,0,0,1,4.22,3.92,11.33,11.33,0,0,1,1.5,5.88v1a9.42,9.42,0,0,1-1.4,5,9.19,9.19,0,0,1-3.67,3.52,11.18,11.18,0,0,1,4.32,4.26,11.79,11.79,0,0,1,1.62,6v.71a11.94,11.94,0,0,1-1.59,6.22,10.78,10.78,0,0,1-4.53,4.15,16.54,16.54,0,0,1-13.59,0Zm10.46-5.1a5.89,5.89,0,0,0,2.44-2.3,6.6,6.6,0,0,0,.87-3.41v-.41A6.64,6.64,0,0,0,416,80a5.83,5.83,0,0,0-2.44-2.3,8.6,8.6,0,0,0-7.33,0A5.79,5.79,0,0,0,403.75,80a6.76,6.76,0,0,0-.87,3.46v.44a6.48,6.48,0,0,0,.87,3.39,5.85,5.85,0,0,0,2.44,2.28,8.08,8.08,0,0,0,3.66.8A7.85,7.85,0,0,0,413.52,89.51Zm-.5-19.2a5.39,5.39,0,0,0,2.14-2.22,7,7,0,0,0,.76-3.31v-.41a6.51,6.51,0,0,0-.76-3.16A5.2,5.2,0,0,0,413,59.09a7.05,7.05,0,0,0-6.33,0,5.2,5.2,0,0,0-2.14,2.12,6.46,6.46,0,0,0-.76,3.19v.44a6.8,6.8,0,0,0,.76,3.27,5.4,5.4,0,0,0,2.14,2.2,6.89,6.89,0,0,0,6.33,0Z" transform="translate(-4.39 -3.3)"/><path class="cls-3" d="M447.53,65.22h6V95.63h-6Zm18.16,12a7.16,7.16,0,0,0-1.58-5,5.69,5.69,0,0,0-4.48-1.76A6.27,6.27,0,0,0,455.1,72a5.83,5.83,0,0,0-1.59,4.37l-.62-5.86a10.76,10.76,0,0,1,3.68-4.25,8.91,8.91,0,0,1,5-1.5A9.91,9.91,0,0,1,467,66.23a9.07,9.07,0,0,1,3.44,4.24,17.06,17.06,0,0,1,1.19,6.71V95.63h-6Zm18.17,0a7,7,0,0,0-1.67-5,6.15,6.15,0,0,0-4.69-1.76,5.47,5.47,0,0,0-4.31,1.7,7,7,0,0,0-1.52,4.8l-1.2-5.86a11.69,11.69,0,0,1,3.79-4.67,8.89,8.89,0,0,1,5.2-1.66,10.45,10.45,0,0,1,5.61,1.45,9.1,9.1,0,0,1,3.55,4.24,16.7,16.7,0,0,1,1.21,6.71V95.63h-6Z" transform="translate(-4.39 -3.3)"/><path class="cls-3" d="M498.92,53h6v6h-6Zm0,12.18h6V95.63h-6Z" transform="translate(-4.39 -3.3)"/><path class="cls-3" d="M520,87.78a2.65,2.65,0,0,0,.49,1.72,1.64,1.64,0,0,0,1.36.6h2.81v5.68h-3.52a6.62,6.62,0,0,1-5.25-2.11,8.66,8.66,0,0,1-1.86-6V53h6Z" transform="translate(-4.39 -3.3)"/><path class="cls-3" d="M537.32,87.78a2.71,2.71,0,0,0,.49,1.72,1.64,1.64,0,0,0,1.36.6H542v5.68h-3.51a6.63,6.63,0,0,1-5.26-2.11,8.71,8.71,0,0,1-1.86-6V53h6Z" transform="translate(-4.39 -3.3)"/><path class="cls-3" d="M548.72,53h6v6h-6Zm0,12.18h6V95.63h-6Z" transform="translate(-4.39 -3.3)"/><path class="cls-3" d="M568.67,94.52A10.23,10.23,0,0,1,564.38,90a15.88,15.88,0,0,1-1.48-7.16v-5a15.61,15.61,0,0,1,1.48-7.08,10.27,10.27,0,0,1,4.29-4.48,15.65,15.65,0,0,1,13.54,0,10.27,10.27,0,0,1,4.29,4.48A15.61,15.61,0,0,1,588,77.88v5A15.61,15.61,0,0,1,586.5,90a10.26,10.26,0,0,1-4.29,4.5,15.56,15.56,0,0,1-13.54,0Zm11.62-6.09A8.13,8.13,0,0,0,582,82.92v-5a8,8,0,0,0-1.71-5.48,7.06,7.06,0,0,0-9.7,0,8,8,0,0,0-1.71,5.48v5a8.13,8.13,0,0,0,1.71,5.51,7,7,0,0,0,9.7,0Z" transform="translate(-4.39 -3.3)"/><path class="cls-3" d="M596.48,65.22h6V95.63h-6Zm18.45,12a6.91,6.91,0,0,0-1.67-5,6.12,6.12,0,0,0-4.69-1.76A6.23,6.23,0,0,0,604.05,72a5.8,5.8,0,0,0-1.6,4.37l-.61-5.86a10.74,10.74,0,0,1,3.67-4.25,9,9,0,0,1,5-1.5A9.44,9.44,0,0,1,618.2,68c1.8,2.16,2.71,5.21,2.71,9.16V95.63h-6Z" transform="translate(-4.39 -3.3)"/><path class="cls-1" d="M720.71,15.75a2.79,2.79,0,0,0,.65,2,2.37,2.37,0,0,0,1.84.7A2.51,2.51,0,0,0,725,17.8a2.33,2.33,0,0,0,.65-1.77l.16,2.54a3.52,3.52,0,0,1-1.22,1.52,3.47,3.47,0,0,1-2.07.61,3.85,3.85,0,0,1-3.11-1.3,5.49,5.49,0,0,1-1.1-3.65V8.36h2.39Zm4.95-7.39H728V20.52h-2.38Z" transform="translate(-4.39 -3.3)"/><path class="cls-1" d="M731.67,8.36h2.39V20.52h-2.39Zm7.38,4.79a2.75,2.75,0,0,0-.67-2,2.45,2.45,0,0,0-1.87-.71,2.5,2.5,0,0,0-1.81.62,2.33,2.33,0,0,0-.64,1.75l-.25-2.34a4.4,4.4,0,0,1,1.47-1.7,3.59,3.59,0,0,1,2-.6,3.8,3.8,0,0,1,3.07,1.29,5.6,5.6,0,0,1,1.08,3.67v7.38h-2.39Z" transform="translate(-4.39 -3.3)"/><path class="cls-1" d="M748.37,20.7l-1.2-.64a4.28,4.28,0,0,1-1.82-1.85,6.44,6.44,0,0,1-.63-3V13.88a7.07,7.07,0,0,1,.61-3.09,4.24,4.24,0,0,1,1.75-1.94,5.35,5.35,0,0,1,2.76-.67,4.4,4.4,0,0,1,2.61.76,4.8,4.8,0,0,1,1.64,2.2,9.46,9.46,0,0,1,.57,3.46v.8h-8.2V13.48h5.93a4.1,4.1,0,0,0-.77-2.32,2.15,2.15,0,0,0-1.78-.82,2.58,2.58,0,0,0-2.1.89,3.79,3.79,0,0,0-.74,2.52v1.54a3.17,3.17,0,0,0,.79,2.32,3,3,0,0,0,2.26.81,3.91,3.91,0,0,0,1.45-.29,4.26,4.26,0,0,0,1.27-.82l1.57,1.57a6.59,6.59,0,0,1-2,1.34,5.75,5.75,0,0,1-2.27.48Z" transform="translate(-4.39 -3.3)"/><path class="cls-1" d="M757.94,8.36h2.39V20.52h-2.39Zm7.27,4.79a2.83,2.83,0,0,0-.64-2,2.28,2.28,0,0,0-1.79-.71,2.51,2.51,0,0,0-1.81.62,2.33,2.33,0,0,0-.64,1.75l-.24-2.34a4.24,4.24,0,0,1,1.47-1.7,3.54,3.54,0,0,1,2-.6,3.94,3.94,0,0,1,2.18.58,3.62,3.62,0,0,1,1.37,1.69,6.81,6.81,0,0,1,.48,2.69v7.38h-2.39Zm7.26,0a2.75,2.75,0,0,0-.67-2,2.45,2.45,0,0,0-1.87-.71,2.19,2.19,0,0,0-1.72.68,2.78,2.78,0,0,0-.61,1.92l-.48-2.34a4.73,4.73,0,0,1,1.51-1.87,3.57,3.57,0,0,1,2.08-.66,4.14,4.14,0,0,1,2.25.58,3.71,3.71,0,0,1,1.42,1.69,6.81,6.81,0,0,1,.48,2.69v7.38h-2.39Z" transform="translate(-4.39 -3.3)"/><path class="cls-1" d="M778.5,8.36h2.39v17.1H778.5ZM782,20.15a3.22,3.22,0,0,1-1.24-1.54l.17-2.54a2.84,2.84,0,0,0,.28,1.33,2,2,0,0,0,.81.85,2.74,2.74,0,0,0,1.3.29,2.33,2.33,0,0,0,1.83-.72,3,3,0,0,0,.65-2V13.15a3.08,3.08,0,0,0-.65-2.08,2.3,2.3,0,0,0-1.83-.73,2.74,2.74,0,0,0-1.3.28,1.89,1.89,0,0,0-.81.82,2.81,2.81,0,0,0-.28,1.31l-.25-2.34a4.32,4.32,0,0,1,1.44-1.65,3.55,3.55,0,0,1,2-.58,4,4,0,0,1,2.21.58,3.68,3.68,0,0,1,1.4,1.69,6.81,6.81,0,0,1,.48,2.69v2.65a6.38,6.38,0,0,1-.49,2.64,3.69,3.69,0,0,1-1.44,1.69,4.33,4.33,0,0,1-2.27.58A3.64,3.64,0,0,1,782,20.15Z" transform="translate(-4.39 -3.3)"/><path class="cls-1" d="M793.94,17.38a1.1,1.1,0,0,0,.19.68.68.68,0,0,0,.55.24h1.12v2.28h-1.4a2.65,2.65,0,0,1-2.11-.85,3.49,3.49,0,0,1-.74-2.37V3.48h2.39Z" transform="translate(-4.39 -3.3)"/><path class="cls-1" d="M800.46,20.07a4,4,0,0,1-1.72-1.81,6.4,6.4,0,0,1-.59-2.86v-2a6.29,6.29,0,0,1,.59-2.83,4.1,4.1,0,0,1,1.72-1.8,6.3,6.3,0,0,1,5.41,0,4.16,4.16,0,0,1,1.72,1.8,6.29,6.29,0,0,1,.59,2.83v2a6.38,6.38,0,0,1-.59,2.85,4.13,4.13,0,0,1-1.72,1.79,6.12,6.12,0,0,1-5.41,0Zm4.64-2.43a3.25,3.25,0,0,0,.69-2.21v-2a3.16,3.16,0,0,0-.69-2.19,2.43,2.43,0,0,0-1.94-.78,2.46,2.46,0,0,0-1.94.78,3.21,3.21,0,0,0-.68,2.19v2a3.3,3.3,0,0,0,.68,2.21,2.46,2.46,0,0,0,1.94.78A2.43,2.43,0,0,0,805.1,17.64Z" transform="translate(-4.39 -3.3)"/><path class="cls-1" d="M809.82,8.36h2.44L816,18.93l-1.33,2.59Zm10.77,0-5.18,15a3.62,3.62,0,0,1-.74,1.32,2.59,2.59,0,0,1-1.12.69,5.59,5.59,0,0,1-1.64.21h-.48V23.3h.48A1.85,1.85,0,0,0,813,23a2.12,2.12,0,0,0,.68-.93l4.5-13.74Z" transform="translate(-4.39 -3.3)"/><path class="cls-1" d="M822.7,8.36h2.39V20.52H822.7ZM830,13.15a2.88,2.88,0,0,0-.63-2,2.28,2.28,0,0,0-1.79-.71,2.5,2.5,0,0,0-1.81.62,2.33,2.33,0,0,0-.64,1.75l-.25-2.34a4.4,4.4,0,0,1,1.47-1.7,3.59,3.59,0,0,1,2-.6,3.9,3.9,0,0,1,2.18.58,3.64,3.64,0,0,1,1.38,1.69,6.81,6.81,0,0,1,.48,2.69v7.38H830Zm7.27,0a2.75,2.75,0,0,0-.67-2,2.45,2.45,0,0,0-1.87-.71,2.23,2.23,0,0,0-1.73.68,2.83,2.83,0,0,0-.6,1.92l-.48-2.34a4.65,4.65,0,0,1,1.51-1.87,3.55,3.55,0,0,1,2.08-.66,4.14,4.14,0,0,1,2.25.58,3.64,3.64,0,0,1,1.41,1.69,6.63,6.63,0,0,1,.49,2.69v7.38h-2.39Z" transform="translate(-4.39 -3.3)"/><path class="cls-1" d="M846.55,20.7l-1.2-.64a4.23,4.23,0,0,1-1.82-1.85,6.44,6.44,0,0,1-.63-3V13.88a7.07,7.07,0,0,1,.61-3.09,4.24,4.24,0,0,1,1.75-1.94A5.35,5.35,0,0,1,848,8.18a4.4,4.4,0,0,1,2.61.76,4.8,4.8,0,0,1,1.64,2.2,9.46,9.46,0,0,1,.57,3.46v.8h-8.2V13.48h5.93a4.1,4.1,0,0,0-.77-2.32,2.15,2.15,0,0,0-1.78-.82,2.58,2.58,0,0,0-2.1.89,3.79,3.79,0,0,0-.74,2.52v1.54a3.17,3.17,0,0,0,.79,2.32,3,3,0,0,0,2.26.81,3.91,3.91,0,0,0,1.45-.29,4.26,4.26,0,0,0,1.27-.82l1.57,1.57a6.59,6.59,0,0,1-2,1.34,5.75,5.75,0,0,1-2.27.48Z" transform="translate(-4.39 -3.3)"/><path class="cls-1" d="M856.12,8.36h2.39V20.52h-2.39Zm7.38,4.79a2.8,2.8,0,0,0-.66-2,2.47,2.47,0,0,0-1.88-.71,2.51,2.51,0,0,0-1.81.62,2.33,2.33,0,0,0-.64,1.75l-.24-2.34a4.24,4.24,0,0,1,1.47-1.7,3.54,3.54,0,0,1,2-.6,3.77,3.77,0,0,1,3.06,1.29,5.6,5.6,0,0,1,1.08,3.67v7.38H863.5Z" transform="translate(-4.39 -3.3)"/><path class="cls-1" d="M868.59,8.36h5.48v2.15h-5.48Zm1.94,11.4a3.62,3.62,0,0,1-.69-2.4V4.82h2.39V17.38a1.1,1.1,0,0,0,.18.68.61.61,0,0,0,.52.24h1.14v2.28h-1.38A2.66,2.66,0,0,1,870.53,19.76Z" transform="translate(-4.39 -3.3)"/><path class="cls-1" d="M887.8,20.52h-2.39V6.08L883,7.57V5.1l2.43-1.62h2.39Z" transform="translate(-4.39 -3.3)"/><path class="cls-1" d="M897.7,12.06v.42a1.77,1.77,0,0,1-.89.79,3.5,3.5,0,0,1-1.4.25,3.71,3.71,0,0,1-2.14-.62,4,4,0,0,1-1.44-1.75,6.31,6.31,0,0,1-.51-2.62h0a6.53,6.53,0,0,1,.56-2.82,3.89,3.89,0,0,1,1.63-1.79,5.17,5.17,0,0,1,2.57-.61,5,5,0,0,1,2.57.63,4,4,0,0,1,1.62,1.8,6.67,6.67,0,0,1,.56,2.85h0a8.65,8.65,0,0,1-.24,1.95,11.51,11.51,0,0,1-.67,2.06c0,.1-.09.2-.14.31a2.2,2.2,0,0,1-.15.31L896,20.52h-2.58Zm.11-1.48a3.33,3.33,0,0,0,.62-2.14h0a3.18,3.18,0,0,0-.62-2.09,2.43,2.43,0,0,0-3.49,0,3.19,3.19,0,0,0-.62,2.1h0a3.33,3.33,0,0,0,.62,2.14,2.13,2.13,0,0,0,1.75.75A2.1,2.1,0,0,0,897.81,10.58Z" transform="translate(-4.39 -3.3)"/><path class="cls-1" d="M907,20.7l-1.09-.53a4.21,4.21,0,0,1-1.75-1.51,5.24,5.24,0,0,1-.84-2.38h2.43a2.72,2.72,0,0,0,.46,1.19,2.09,2.09,0,0,0,.91.7,3.48,3.48,0,0,0,1.31.23,2.55,2.55,0,0,0,1.84-.63,2.41,2.41,0,0,0,.65-1.79v-.51a2.87,2.87,0,0,0-.62-2,2.24,2.24,0,0,0-1.76-.69h-1.2V10.52h1.2a2,2,0,0,0,1.55-.59,2.41,2.41,0,0,0,.55-1.69V7.71A2,2,0,0,0,910,6.15a2.32,2.32,0,0,0-1.64-.55,2.53,2.53,0,0,0-1.09.23,2,2,0,0,0-.82.7A3.49,3.49,0,0,0,906,7.72h-2.42a6.19,6.19,0,0,1,.88-2.39,4.41,4.41,0,0,1,1.65-1.51,5,5,0,0,1,2.29-.52,4.76,4.76,0,0,1,3.41,1.16A4.36,4.36,0,0,1,913,7.73V8a3.66,3.66,0,0,1-.69,2.22,3.86,3.86,0,0,1-2,1.39A3.5,3.5,0,0,1,912.51,13a4.52,4.52,0,0,1,.76,2.71V16a5.27,5.27,0,0,1-.57,2.54,3.75,3.75,0,0,1-1.67,1.6,5.78,5.78,0,0,1-2.64.56Z" transform="translate(-4.39 -3.3)"/><path class="cls-1" d="M916.44,15.83l5.72-12.34h2.46L919,15.69h8.35v2.22H916.44Zm7.35-5.33h2.33v10h-2.33Z" transform="translate(-4.39 -3.3)"/><path class="cls-4" d="M691,83.34l14.86-19.81a14.37,14.37,0,0,0,2-3.53,9.37,9.37,0,0,0,.72-3.41v-.06a5.16,5.16,0,0,0-1.49-4,6,6,0,0,0-4.25-1.41,5.85,5.85,0,0,0-4.22,1.54,7,7,0,0,0-2,4.35v0h-6.18v0a16,16,0,0,1,2.15-6.26,11,11,0,0,1,4.2-3.95,12.55,12.55,0,0,1,5.95-1.36,14.85,14.85,0,0,1,6.51,1.3,9.2,9.2,0,0,1,4.1,3.79,12.14,12.14,0,0,1,1.4,6v0a13.31,13.31,0,0,1-.93,4.71,20.35,20.35,0,0,1-2.61,4.75L698.91,82.84H715v5.68H691Z" transform="translate(-4.39 -3.3)"/><path class="cls-4" d="M721.91,82.25h6.27v6.27h-6.27Z" transform="translate(-4.39 -3.3)"/><path class="cls-4" d="M758.24,51.26l-11,37.26h-6.35l11-36.91H741v6.12h-6V45.92h23.17Z" transform="translate(-4.39 -3.3)"/><path class="cls-4" d="M782.85,58.11h6V88.52h-6Zm18.16,12a7.19,7.19,0,0,0-1.58-5A5.71,5.71,0,0,0,795,63.36a6.23,6.23,0,0,0-4.53,1.55,5.82,5.82,0,0,0-1.59,4.36l-.62-5.85a10.76,10.76,0,0,1,3.68-4.25,8.91,8.91,0,0,1,5-1.5,9.91,9.91,0,0,1,5.45,1.45,9.07,9.07,0,0,1,3.44,4.24A17.06,17.06,0,0,1,807,70.07V88.52h-6Zm18.17,0a7,7,0,0,0-1.67-5,6.18,6.18,0,0,0-4.69-1.75,5.47,5.47,0,0,0-4.31,1.7,7,7,0,0,0-1.52,4.8L805.79,64a11.69,11.69,0,0,1,3.79-4.67,8.84,8.84,0,0,1,5.2-1.66,10.45,10.45,0,0,1,5.61,1.45,9.1,9.1,0,0,1,3.55,4.24,16.7,16.7,0,0,1,1.21,6.71V88.52h-6Z" transform="translate(-4.39 -3.3)"/><path class="cls-4" d="M834.24,45.92h6v6h-6Zm0,12.19h6V88.52h-6Z" transform="translate(-4.39 -3.3)"/><path class="cls-4" d="M855.27,80.67a2.68,2.68,0,0,0,.48,1.71,1.65,1.65,0,0,0,1.37.61h2.81v5.68h-3.52a6.62,6.62,0,0,1-5.25-2.11,8.71,8.71,0,0,1-1.87-6V45.92h6Z" transform="translate(-4.39 -3.3)"/><path class="cls-4" d="M872.64,80.67a2.68,2.68,0,0,0,.49,1.71,1.62,1.62,0,0,0,1.36.61h2.81v5.68h-3.51a6.63,6.63,0,0,1-5.26-2.11,8.71,8.71,0,0,1-1.86-6V45.92h6Z" transform="translate(-4.39 -3.3)"/><path class="cls-4" d="M884,45.92h6v6h-6Zm0,12.19h6V88.52h-6Z" transform="translate(-4.39 -3.3)"/><path class="cls-4" d="M904,87.41a10.28,10.28,0,0,1-4.29-4.53,15.88,15.88,0,0,1-1.48-7.16v-5a15.58,15.58,0,0,1,1.48-7.08A10.27,10.27,0,0,1,904,59.21a15.65,15.65,0,0,1,13.54,0,10.27,10.27,0,0,1,4.29,4.48,15.58,15.58,0,0,1,1.48,7.08v5a15.61,15.61,0,0,1-1.48,7.1,10.32,10.32,0,0,1-4.29,4.5,15.56,15.56,0,0,1-13.54,0Zm11.62-6.09a8.13,8.13,0,0,0,1.71-5.51v-5a8,8,0,0,0-1.71-5.48,7.06,7.06,0,0,0-9.7,0,8,8,0,0,0-1.71,5.48v5a8.13,8.13,0,0,0,1.71,5.51,7,7,0,0,0,9.7,0Z" transform="translate(-4.39 -3.3)"/><path class="cls-4" d="M931.79,58.11h6V88.52h-6Zm18.46,12a6.94,6.94,0,0,0-1.67-5,7.26,7.26,0,0,0-9.21-.2,5.79,5.79,0,0,0-1.6,4.36l-.61-5.85a10.74,10.74,0,0,1,3.67-4.25,9,9,0,0,1,5-1.5,9.44,9.44,0,0,1,7.66,3.24q2.72,3.24,2.71,9.16V88.52h-6Z" transform="translate(-4.39 -3.3)"/><path class="cls-1" d="M1053.27,15.75a2.74,2.74,0,0,0,.65,2,2.35,2.35,0,0,0,1.83.7,2.54,2.54,0,0,0,1.82-.62,2.33,2.33,0,0,0,.64-1.77l.17,2.54a3.43,3.43,0,0,1-3.3,2.13,3.87,3.87,0,0,1-3.11-1.3,5.48,5.48,0,0,1-1.09-3.65V8.36h2.39Zm4.94-7.39h2.38V20.52h-2.38Z" transform="translate(-4.39 -3.3)"/><path class="cls-1" d="M1064.22,8.36h2.39V20.52h-2.39Zm7.39,4.79a2.8,2.8,0,0,0-.67-2,2.47,2.47,0,0,0-1.88-.71,2.51,2.51,0,0,0-1.81.62,2.37,2.37,0,0,0-.64,1.75l-.24-2.34a4.24,4.24,0,0,1,1.47-1.7,3.54,3.54,0,0,1,2-.6,3.77,3.77,0,0,1,3.06,1.29,5.54,5.54,0,0,1,1.09,3.67v7.38h-2.39Z" transform="translate(-4.39 -3.3)"/><path class="cls-1" d="M1080.92,20.7l-1.19-.64a4.17,4.17,0,0,1-1.82-1.85,6.44,6.44,0,0,1-.63-3V13.88a7.22,7.22,0,0,1,.6-3.09,4.3,4.3,0,0,1,1.75-1.94,5.39,5.39,0,0,1,2.77-.67,4.36,4.36,0,0,1,2.6.76,4.74,4.74,0,0,1,1.65,2.2,9.46,9.46,0,0,1,.57,3.46v.8H1079V13.48h5.93a4,4,0,0,0-.77-2.32,2.15,2.15,0,0,0-1.77-.82,2.55,2.55,0,0,0-2.1.89,3.79,3.79,0,0,0-.75,2.52v1.54a3.17,3.17,0,0,0,.8,2.32,3,3,0,0,0,2.26.81,3.86,3.86,0,0,0,1.44-.29,4.31,4.31,0,0,0,1.28-.82l1.57,1.57a6.64,6.64,0,0,1-2,1.34,5.7,5.7,0,0,1-2.26.48Z" transform="translate(-4.39 -3.3)"/><path class="cls-1" d="M1090.5,8.36h2.39V20.52h-2.39Zm7.26,4.79a2.88,2.88,0,0,0-.63-2,2.28,2.28,0,0,0-1.79-.71,2.5,2.5,0,0,0-1.81.62,2.33,2.33,0,0,0-.64,1.75l-.25-2.34a4.4,4.4,0,0,1,1.47-1.7,3.59,3.59,0,0,1,2-.6,3.92,3.92,0,0,1,2.18.58,3.7,3.7,0,0,1,1.38,1.69,6.82,6.82,0,0,1,.47,2.69v7.38h-2.39Zm7.27,0a2.75,2.75,0,0,0-.67-2,2.45,2.45,0,0,0-1.87-.71,2.22,2.22,0,0,0-1.73.68,2.83,2.83,0,0,0-.61,1.92l-.48-2.34a4.75,4.75,0,0,1,1.52-1.87,3.55,3.55,0,0,1,2.08-.66,4.1,4.1,0,0,1,2.24.58,3.6,3.6,0,0,1,1.42,1.69,6.63,6.63,0,0,1,.49,2.69v7.38H1105Z" transform="translate(-4.39 -3.3)"/><path class="cls-1" d="M1111.05,8.36h2.39v17.1h-2.39Zm3.47,11.79a3.17,3.17,0,0,1-1.24-1.54l.16-2.54a3,3,0,0,0,.28,1.33,2,2,0,0,0,.82.85,2.7,2.7,0,0,0,1.29.29,2.37,2.37,0,0,0,1.84-.72,3,3,0,0,0,.65-2V13.15a3.08,3.08,0,0,0-.65-2.08,2.34,2.34,0,0,0-1.84-.73,2.7,2.7,0,0,0-1.29.28,1.86,1.86,0,0,0-.82.82,2.94,2.94,0,0,0-.28,1.31l-.24-2.34a4.16,4.16,0,0,1,1.44-1.65,3.51,3.51,0,0,1,2-.58,4,4,0,0,1,2.21.58,3.68,3.68,0,0,1,1.4,1.69,6.81,6.81,0,0,1,.48,2.69v2.65a6.55,6.55,0,0,1-.49,2.64,3.65,3.65,0,0,1-1.45,1.69,4.33,4.33,0,0,1-2.27.58A3.59,3.59,0,0,1,1114.52,20.15Z" transform="translate(-4.39 -3.3)"/><path class="cls-1" d="M1126.5,17.38a1,1,0,0,0,.19.68.66.66,0,0,0,.55.24h1.12v2.28H1127a2.64,2.64,0,0,1-2.1-.85,3.44,3.44,0,0,1-.74-2.37V3.48h2.39Z" transform="translate(-4.39 -3.3)"/><path class="cls-1" d="M1133,20.07a4,4,0,0,1-1.71-1.81,6.26,6.26,0,0,1-.6-2.86v-2a6.16,6.16,0,0,1,.6-2.83,4.08,4.08,0,0,1,1.71-1.8,6.32,6.32,0,0,1,5.42,0,4.08,4.08,0,0,1,1.71,1.8,6.16,6.16,0,0,1,.6,2.83v2a6.25,6.25,0,0,1-.6,2.85,4.06,4.06,0,0,1-1.71,1.79,6.14,6.14,0,0,1-5.42,0Zm4.65-2.43a3.25,3.25,0,0,0,.68-2.21v-2a3.16,3.16,0,0,0-.68-2.19,2.8,2.8,0,0,0-3.88,0,3.16,3.16,0,0,0-.69,2.19v2a3.25,3.25,0,0,0,.69,2.21,2.8,2.8,0,0,0,3.88,0Z" transform="translate(-4.39 -3.3)"/><path class="cls-1" d="M1142.38,8.36h2.43l3.74,10.57-1.32,2.59Zm10.77,0-5.18,15a3.77,3.77,0,0,1-.74,1.32,2.62,2.62,0,0,1-1.13.69,5.5,5.5,0,0,1-1.64.21H1144V23.3h.48a1.83,1.83,0,0,0,1.06-.27,2.21,2.21,0,0,0,.69-.93l4.5-13.74Z" transform="translate(-4.39 -3.3)"/><path class="cls-1" d="M1155.25,8.36h2.4V20.52h-2.4Zm7.27,4.79a2.88,2.88,0,0,0-.63-2,2.29,2.29,0,0,0-1.8-.71,2.51,2.51,0,0,0-1.81.62,2.36,2.36,0,0,0-.63,1.75l-.25-2.34a4.24,4.24,0,0,1,1.47-1.7,3.59,3.59,0,0,1,2-.6,3.92,3.92,0,0,1,2.18.58,3.7,3.7,0,0,1,1.38,1.69,7,7,0,0,1,.47,2.69v7.38h-2.39Zm7.27,0a2.8,2.8,0,0,0-.67-2,2.47,2.47,0,0,0-1.88-.71,2.21,2.21,0,0,0-1.72.68,2.78,2.78,0,0,0-.61,1.92l-.48-2.34A4.67,4.67,0,0,1,1166,8.84a3.55,3.55,0,0,1,2.08-.66,4.13,4.13,0,0,1,2.24.58,3.65,3.65,0,0,1,1.42,1.69,6.8,6.8,0,0,1,.49,2.69v7.38h-2.39Z" transform="translate(-4.39 -3.3)"/><path class="cls-1" d="M1179.1,20.7l-1.19-.64a4.25,4.25,0,0,1-1.83-1.85,6.57,6.57,0,0,1-.62-3V13.88a7.22,7.22,0,0,1,.6-3.09,4.3,4.3,0,0,1,1.75-1.94,5.39,5.39,0,0,1,2.77-.67,4.39,4.39,0,0,1,2.6.76,4.74,4.74,0,0,1,1.65,2.2,9.46,9.46,0,0,1,.57,3.46v.8h-8.21V13.48h5.93a4,4,0,0,0-.77-2.32,2.15,2.15,0,0,0-1.77-.82,2.55,2.55,0,0,0-2.1.89,3.79,3.79,0,0,0-.75,2.52v1.54a3.17,3.17,0,0,0,.8,2.32,3,3,0,0,0,2.26.81,3.89,3.89,0,0,0,1.44-.29,4.31,4.31,0,0,0,1.28-.82l1.57,1.57a6.64,6.64,0,0,1-2,1.34,5.7,5.7,0,0,1-2.26.48Z" transform="translate(-4.39 -3.3)"/><path class="cls-1" d="M1188.68,8.36h2.39V20.52h-2.39Zm7.38,4.79a2.75,2.75,0,0,0-.67-2,2.45,2.45,0,0,0-1.87-.71,2.5,2.5,0,0,0-1.81.62,2.33,2.33,0,0,0-.64,1.75l-.25-2.34a4.4,4.4,0,0,1,1.47-1.7,3.59,3.59,0,0,1,2-.6,3.8,3.8,0,0,1,3.07,1.29,5.6,5.6,0,0,1,1.08,3.67v7.38h-2.39Z" transform="translate(-4.39 -3.3)"/><path class="cls-1" d="M1201.15,8.36h5.48v2.15h-5.48Zm1.93,11.4a3.67,3.67,0,0,1-.68-2.4V4.82h2.39V17.38a1.1,1.1,0,0,0,.18.68.58.58,0,0,0,.51.24h1.15v2.28h-1.38A2.67,2.67,0,0,1,1203.08,19.76Z" transform="translate(-4.39 -3.3)"/><path class="cls-1" d="M1220.35,20.52H1218V6.08l-2.42,1.49V5.1L1218,3.48h2.39Z" transform="translate(-4.39 -3.3)"/><path class="cls-1" d="M1230.25,12.06v.42a1.75,1.75,0,0,1-.88.79,3.54,3.54,0,0,1-1.4.25,3.74,3.74,0,0,1-2.15-.62,4.09,4.09,0,0,1-1.43-1.75,6.31,6.31,0,0,1-.51-2.62h0a6.54,6.54,0,0,1,.55-2.82,4,4,0,0,1,1.63-1.79,5.24,5.24,0,0,1,2.58-.61,4.93,4.93,0,0,1,2.56.63,4,4,0,0,1,1.63,1.8,6.68,6.68,0,0,1,.55,2.85h0a9.22,9.22,0,0,1-.23,1.95,12.37,12.37,0,0,1-.67,2.06c0,.1-.09.2-.14.31l-.15.31-3.64,7.3H1226Zm.12-1.48a3.32,3.32,0,0,0,.61-2.14h0a3.18,3.18,0,0,0-.61-2.09,2.15,2.15,0,0,0-1.74-.74,2.17,2.17,0,0,0-1.76.74,3.19,3.19,0,0,0-.61,2.1h0a3.32,3.32,0,0,0,.61,2.14,2.15,2.15,0,0,0,1.76.75A2.1,2.1,0,0,0,1230.37,10.58Z" transform="translate(-4.39 -3.3)"/><path class="cls-1" d="M1239.51,20.7l-1.09-.53a4.27,4.27,0,0,1-1.75-1.51,5.49,5.49,0,0,1-.84-2.38h2.44a2.5,2.5,0,0,0,.46,1.19,2,2,0,0,0,.91.7,3.43,3.43,0,0,0,1.3.23,2.55,2.55,0,0,0,1.84-.63,2.38,2.38,0,0,0,.66-1.79v-.51a2.92,2.92,0,0,0-.62-2,2.25,2.25,0,0,0-1.76-.69h-1.21V10.52h1.21a2,2,0,0,0,1.55-.59,2.45,2.45,0,0,0,.55-1.69V7.71a2.08,2.08,0,0,0-.58-1.56,2.35,2.35,0,0,0-1.65-.55,2.53,2.53,0,0,0-1.09.23,2.08,2.08,0,0,0-.81.7,3.14,3.14,0,0,0-.49,1.19h-2.43a6.36,6.36,0,0,1,.89-2.39,4.26,4.26,0,0,1,1.65-1.51,4.91,4.91,0,0,1,2.28-.52,4.73,4.73,0,0,1,3.41,1.16,4.32,4.32,0,0,1,1.21,3.27V8a3.66,3.66,0,0,1-.69,2.22,3.9,3.9,0,0,1-2,1.39,3.45,3.45,0,0,1,2.16,1.37,4.53,4.53,0,0,1,.77,2.71V16a5.15,5.15,0,0,1-.58,2.54,3.7,3.7,0,0,1-1.67,1.6,5.78,5.78,0,0,1-2.64.56Z" transform="translate(-4.39 -3.3)"/><path class="cls-1" d="M1251.69,20.19a4.06,4.06,0,0,1-1.62-1.46,5.78,5.78,0,0,1-.84-2.31h2.39a2.19,2.19,0,0,0,.75,1.46,2.46,2.46,0,0,0,1.62.52,2.17,2.17,0,0,0,1.77-.77,3.31,3.31,0,0,0,.63-2.16V14a3.3,3.3,0,0,0-.63-2.15,2.17,2.17,0,0,0-1.77-.77,2.29,2.29,0,0,0-1.2.35,3.51,3.51,0,0,0-1,1h-2.18v-9h8.69V5.75H1252V9.59a3.42,3.42,0,0,1,1-.57,3.35,3.35,0,0,1,1.12-.2,5,5,0,0,1,2.53.61,3.89,3.89,0,0,1,1.59,1.78,6.62,6.62,0,0,1,.55,2.83v1.43a6.53,6.53,0,0,1-.56,2.82,4.07,4.07,0,0,1-1.64,1.79,5.17,5.17,0,0,1-2.59.62A5,5,0,0,1,1251.69,20.19Z" transform="translate(-4.39 -3.3)"/><path class="cls-1" d="M1034.49,88.52h-6V52.43l-6.06,3.72V50l6.06-4h6Z" transform="translate(-4.39 -3.3)"/><path class="cls-1" d="M1043.42,82.25h6.27v6.27h-6.27Z" transform="translate(-4.39 -3.3)"/><path class="cls-1" d="M1079.75,51.26l-11,37.26h-6.36l11-36.91h-10.84v6.12h-6V45.92h23.17Z" transform="translate(-4.39 -3.3)"/><path class="cls-1" d="M1104.36,58.11h6V88.52h-6Zm18.16,12a7.19,7.19,0,0,0-1.58-5,5.71,5.71,0,0,0-4.48-1.75,6.23,6.23,0,0,0-4.53,1.55,5.82,5.82,0,0,0-1.59,4.36l-.62-5.85a10.76,10.76,0,0,1,3.68-4.25,8.91,8.91,0,0,1,5-1.5,9.91,9.91,0,0,1,5.45,1.45,9.07,9.07,0,0,1,3.44,4.24,16.88,16.88,0,0,1,1.19,6.71V88.52h-6Zm18.17,0a7,7,0,0,0-1.67-5,6.16,6.16,0,0,0-4.69-1.75,5.48,5.48,0,0,0-4.31,1.7,7,7,0,0,0-1.52,4.8L1127.3,64a11.69,11.69,0,0,1,3.79-4.67,8.84,8.84,0,0,1,5.2-1.66,10.45,10.45,0,0,1,5.61,1.45,9.1,9.1,0,0,1,3.55,4.24,16.69,16.69,0,0,1,1.22,6.71V88.52h-6Z" transform="translate(-4.39 -3.3)"/><path class="cls-1" d="M1155.75,45.92h6v6h-6Zm0,12.19h6V88.52h-6Z" transform="translate(-4.39 -3.3)"/><path class="cls-1" d="M1176.78,80.67a2.62,2.62,0,0,0,.49,1.71,1.62,1.62,0,0,0,1.36.61h2.81v5.68h-3.52a6.62,6.62,0,0,1-5.25-2.11,8.71,8.71,0,0,1-1.86-6V45.92h6Z" transform="translate(-4.39 -3.3)"/><path class="cls-1" d="M1194.16,80.67a2.68,2.68,0,0,0,.48,1.71A1.63,1.63,0,0,0,1196,83h2.81v5.68h-3.51a6.63,6.63,0,0,1-5.26-2.11,8.71,8.71,0,0,1-1.86-6V45.92h6Z" transform="translate(-4.39 -3.3)"/><path class="cls-1" d="M1205.55,45.92h6v6h-6Zm0,12.19h6V88.52h-6Z" transform="translate(-4.39 -3.3)"/><path class="cls-1" d="M1225.5,87.41a10.28,10.28,0,0,1-4.29-4.53,15.88,15.88,0,0,1-1.48-7.16v-5a15.58,15.58,0,0,1,1.48-7.08,10.27,10.27,0,0,1,4.29-4.48,15.65,15.65,0,0,1,13.54,0,10.27,10.27,0,0,1,4.29,4.48,15.58,15.58,0,0,1,1.48,7.08v5a15.61,15.61,0,0,1-1.48,7.1,10.32,10.32,0,0,1-4.29,4.5,15.56,15.56,0,0,1-13.54,0Zm11.62-6.09a8.13,8.13,0,0,0,1.71-5.51v-5a8,8,0,0,0-1.71-5.48,7.06,7.06,0,0,0-9.7,0,8,8,0,0,0-1.71,5.48v5a8.13,8.13,0,0,0,1.71,5.51,7,7,0,0,0,9.7,0Z" transform="translate(-4.39 -3.3)"/><path class="cls-1" d="M1253.31,58.11h6V88.52h-6Zm18.45,12a6.94,6.94,0,0,0-1.67-5,7.26,7.26,0,0,0-9.21-.2,5.79,5.79,0,0,0-1.6,4.36l-.61-5.85a10.74,10.74,0,0,1,3.67-4.25,9,9,0,0,1,5-1.5,9.44,9.44,0,0,1,7.66,3.24q2.71,3.24,2.71,9.16V88.52h-6Z" transform="translate(-4.39 -3.3)"/></g></g></svg>