<svg xmlns="http://www.w3.org/2000/svg" viewBox="0 0 500 501.46"><defs><style>.cls-1{fill:#fff;}</style></defs><title>autarky</title><g id="Layer_2" data-name="Layer 2"><rect y="1.46" width="500" height="500"/></g><g id="Layer_1" data-name="Layer 1"><path class="cls-1" d="M455.36,559.48c-16.19.57-27.52,4-40.19,12-8,5.09-14.81,10.69-27.19,22.34-8.48,8-12.24,11.32-13.77,12.21a3.39,3.39,0,0,1-1.15.39c-1.11.16-2.23.76-4.52,2.4-1.18.83-2.86,2-3.78,2.58-2.21,1.43-2.74,2-2.63,2.71a.85.85,0,0,1-.26.89c-.4.39-.42,1.11-.05,2.81a24.08,24.08,0,0,0,6.94,11.84,25.57,25.57,0,0,0,6,4.65c1.74,1,4.28,1.83,5,1.67,1.91-.46,7.54-6.81,9.43-10.63l1.42-2.83a12,12,0,0,1,1.69-2.09c2.75-2.79,13.84-10.77,17.91-12.89,1.4-.74,2.43-.81,5.18-.39,3.84.6,5.89,2.23,9.64,7.65,2.33,3.37,4.39,6.07,12,15.71,9.84,12.49,15.68,20.09,24.88,32.46,8.22,11,12.44,16.54,25.68,33.51,11.09,14.2,15.44,19.88,24.89,32.38,4,5.26,12.29,16.16,18.45,24.21s13.13,17.18,15.46,20.27c6.7,8.86,8,10.33,9.16,10.55a13.28,13.28,0,0,0,5.09-1.16c6.63-2.48,16.94-10,20.23-14.72a98.7,98.7,0,0,0,7.09-12.78c.57-1.58.49-1.86-.7-3.07-1.36-1.35-5.84-5.19-12.81-10.93-14-11.55-18.23-15.58-31.69-30.27-12.69-13.85-22.62-25.13-42.3-48.08-12.83-15-17.29-20.06-27.15-31.06-20.07-22.37-27.45-31.2-32.24-38.6-2.24-3.46-2.66-4.41-2.65-5.79a16.35,16.35,0,0,1,1.66-5.62c1.54-3.14,3.39-4.61,9.89-7.82,8.94-4.43,15.42-6.22,31.49-8.67,5.85-.9,7.82-1.48,8.35-2.46.75-1.39,0-1.77-4.13-2.26A225.27,225.27,0,0,0,455.36,559.48Z" transform="translate(-353.5 -293.26)"/><path class="cls-1" d="M608.62,293.91c-1.72,1.8-5.63,10.19-7.83,16.72A91.27,91.27,0,0,0,596,335.82c-.57,11.7,1.53,21.16,6,26.87a13.3,13.3,0,0,0,5.25,4.16,6.17,6.17,0,0,0,3.31.73,4.66,4.66,0,0,0,2.72-.53,8.83,8.83,0,0,0,4.08-5.28c.33-1.06.4-2,.38-6,0-9.75-1.13-12.19-9-20.22a48.6,48.6,0,0,1-6.22-7.22c-1-1.81-.95-6.15.17-12.21a54.76,54.76,0,0,1,3.56-11.49c2.56-6.36,3.48-9,3.64-10.26S609.57,292.91,608.62,293.91Z" transform="translate(-353.5 -293.26)"/><path class="cls-1" d="M562.19,304.63c-.84,2.74-1.08,15.56-.4,20.35a57.31,57.31,0,0,1-.06,13.25,52.85,52.85,0,0,0,0,13.35,58.67,58.67,0,0,1,0,13.94,52.87,52.87,0,0,0,0,13.35,55.47,55.47,0,0,1,0,13.54,56.21,56.21,0,0,0,0,13.74,55.74,55.74,0,0,1,0,13.55,53.52,53.52,0,0,0,0,13.64,52.16,52.16,0,0,1,0,13.25,56.2,56.2,0,0,0-.11,12.8,79.17,79.17,0,0,1,.3,8.6c0,7.78.29,11.76,2,26.21.89,7.26,1,7.79,2.43,11.87,3.29,9.25,9.6,21,14.72,27.35,2.41,3,7.57,7.46,10.26,8.87a22.37,22.37,0,0,0,6.58,1.53c2.12,0,3.6-1,4.55-3.2.55-1.29.55-5.28,0-7.26-1.28-4.47-3.66-8.2-7.79-12.15-3.81-3.65-8.76-6.87-12.29-8a26.7,26.7,0,0,0-2.69-.55,8,8,0,0,1-5.08-2.35c-6.7-6.09-10.08-17.5-11.23-37.89l-.11-2.16,1.19,4.12a83.26,83.26,0,0,0,6.69,16.88c5.8,11.33,14.1,21.07,20.26,23.82a12.43,12.43,0,0,0,6.29,1.31c3.17,0,4-.29,4.72-1.65.42-.8.46-1.23.44-3.94a14.06,14.06,0,0,0-.6-5c-1-3.55-3.5-7.42-7.21-11.33a28.61,28.61,0,0,0-10.48-7.1,26.47,26.47,0,0,0-6.29-2c-.86-.11-1.22-.33-2.65-1.62a25.43,25.43,0,0,1-3-3.26,57.1,57.1,0,0,1-7.26-14.18c-.73-2.49-1.7-12-2-19.71q-.24-5.67.48-3.31c.16.49,1,3.22,1.84,6.08,2.6,8.76,4.45,13.29,7.76,19.24a57.68,57.68,0,0,0,10.84,14.23c5.1,4.79,9.42,6.78,14.23,6.52,3.45-.18,4.31-1,4.44-4.42a18.49,18.49,0,0,0-3-10.81,32.11,32.11,0,0,0-6.82-8.17,29.69,29.69,0,0,0-12.88-7.17c-3.93-1-4.33-1.31-7.53-5.88-6.51-9.33-8.25-14.57-9-27-.26-4.22-.46-10.85-.33-10.6s.66,1.87,1.33,3.93c5.89,17.9,9.33,24.85,16.19,32.74,4.73,5.42,8.45,8.31,12.38,9.56a11.16,11.16,0,0,0,4.2.47c2.36,0,2.89,0,3.64-.39,1.5-.69,1.76-1.41,1.76-4.89a15.23,15.23,0,0,0-1.85-7.95,31.63,31.63,0,0,0-8.08-10.3,29.94,29.94,0,0,0-12.84-6.93c-3.91-1-4.39-1.42-8.63-7.19-3.33-4.49-4.61-7-5.67-11-1.41-5.4-2.12-11.62-2.41-21.69l-.13-3.83.46,1.37c.25.75,1.11,3.46,1.9,6,2.78,8.86,4.92,14.14,8,19.73,4.26,7.68,11.32,15.43,16.55,18.16,2.48,1.29,3.87,1.63,7.51,1.71,3.95.09,4.12,0,4.79-1.71,1.19-3.12.33-8.78-2-12.86a34.84,34.84,0,0,0-20.92-15.84,11.9,11.9,0,0,1-2.51-.9c-1.84-1.1-6.34-6.54-8.48-10.21-2.32-4-3.86-10-4.66-18.2-.24-2.41-.7-11.78-.66-13.54l0-1,.42,1.38c4.9,15.55,6.34,19.22,10.07,25.81a55.68,55.68,0,0,0,9.62,12.8c3.6,3.59,6.69,5.85,9.86,7.21,4.31,1.86,7.59,1.39,9.09-1.3.47-.86.51-1.2.51-3.79a11.58,11.58,0,0,0-.64-4.81,28.47,28.47,0,0,0-4.7-8.44,55,55,0,0,0-8.1-7.46c-3.92-2.83-7.35-4.44-10.19-4.79a6.15,6.15,0,0,1-2.14-.63c-1.13-.68-2.7-2.41-5-5.53-6.32-8.39-8.21-15.45-8.72-32.31-.09-3.26-.07-4.78.09-4.64s.77,1.83,2.58,7.85c4,13.18,8.69,22.19,15.8,30.18,4.83,5.4,10.26,8.95,14.67,9.6a5.68,5.68,0,0,0,2.81-.1c2.69-.69,3.73-2.34,3.7-5.79a16.23,16.23,0,0,0-1.25-6.5c-1.48-4-4-7.42-8.48-11.41-5.25-4.73-10-7.42-14.19-8-1.67-.23-2.67-.84-4.5-2.74a36.74,36.74,0,0,1-7.74-12.21c-2.26-6.15-3.23-12.39-3.58-22.74-.2-6.24-.35-8-.68-8.16C562.5,303.92,562.3,304.21,562.19,304.63Z" transform="translate(-353.5 -293.26)"/><path class="cls-1" d="M624.84,305.63c-.35.59-.29,1,.79,5.3a47.56,47.56,0,0,1,1.79,11.7c.27,6.81-.62,13.11-3.18,22.73-1.39,5.22-1.41,5,.38,5,1.63,0,2.23-.59,3.46-3.51,1.55-3.63,3.49-14.55,3.76-20.83.15-4.4-.09-5.89-3.05-18.25a10,10,0,0,0-.71-2.32,3.27,3.27,0,0,0-1.61-.24C625.33,305.25,625,305.31,624.84,305.63Z" transform="translate(-353.5 -293.26)"/><path class="cls-1" d="M581.83,307.57c-.42.27-.71,1.3-1.9,6.6-2.16,9.56-2.2,9.79-2.2,14.84a42.36,42.36,0,0,0,.39,6.85c.69,4.14,1.46,7.34,1.88,7.87a3.08,3.08,0,0,0,2.84.65c1.33-.2,1.37-.36.76-3.77a76.59,76.59,0,0,1-1.35-18.34,33.88,33.88,0,0,1,2.21-10.4,34.54,34.54,0,0,0,1.1-3.5,1.35,1.35,0,0,0-.44-.76A3.66,3.66,0,0,0,581.83,307.57Z" transform="translate(-353.5 -293.26)"/><path class="cls-1" d="M645.16,325.37c-.13.5-.46,2.81-.7,5.17-1.13,10.76-2.08,13.48-8.81,25.46l-3.86,6.87-2.34.31a21.94,21.94,0,0,0-6.6,1.75c-6.51,2.81-12.84,8.28-16,13.84-1.7,3-2,4-2.1,7.79-.15,5.13.18,6.3,2,7.09s6.42.31,9.27-1c5.71-2.55,12.33-10.15,19.48-22.34A74.4,74.4,0,0,0,645,342c1-7.3,1.35-17.47.55-17.47C645.5,324.49,645.3,324.88,645.16,325.37Z" transform="translate(-353.5 -293.26)"/><path class="cls-1" d="M719,348.21c-.26.39-.75,4.59-1.12,9.56-1.06,14.76-5,24.28-11,26.89a13,13,0,0,1-2.62.69,23.57,23.57,0,0,0-9.52,4.22,20.14,20.14,0,0,0-7.94,11.3c-.68,2.85-.35,5.13.93,6.46A5.19,5.19,0,0,0,692,409a6.53,6.53,0,0,0,3.53-.82A33.34,33.34,0,0,0,709,395.61c3.37-6.06,7.68-16.43,8.71-21,1-4.28,1.57-10.84,1.72-19.08C719.55,349.38,719.42,347.56,719,348.21Z" transform="translate(-353.5 -293.26)"/><path class="cls-1" d="M645.52,351.9c-.33.51-.64,2.16-1,5.83-.68,6.38-1.43,10-3,14.25-2,5.57-6.13,12.68-9.22,16a5.15,5.15,0,0,1-3.53,1.76c-3.49.42-9.54,3.79-14.17,7.9-5,4.39-8.45,9.32-9.73,13.78-1,3.53-.42,8.1,1.19,9.05.48.27,1.12.33,3.79.33,2.89,0,3.36-.06,4.81-.53a16.1,16.1,0,0,0,6.07-3.49c6.31-5.3,14.48-17.12,18.72-27.09,3.37-7.94,5-14.63,6.18-25.13.33-3.14.53-12,.26-12.47C645.74,351.9,645.58,351.8,645.52,351.9Z" transform="translate(-353.5 -293.26)"/><path class="cls-1" d="M489.43,353.05c-.24,1.18.07,13.18.44,17.12.71,7.3,1.33,10,3.49,15.67,2.67,7,6.2,14.19,8.43,17.17,3,4,9.07,8.82,12.58,10,2.58.86,5.54.31,6.88-1.28,2.14-2.49,1.35-7.64-2-12.72a27,27,0,0,0-6.74-6.15,22.11,22.11,0,0,0-8.07-3.18c-2.08-.27-3.29-.88-5.28-2.65-2.47-2.21-4-5-5.6-9.95s-2.19-9-2.78-17.23C490.31,353.53,489.85,351.13,489.43,353.05Z" transform="translate(-353.5 -293.26)"/><path class="cls-1" d="M699.61,358.69c-2.83,1.35-4.33,3.08-7,8.11-3.4,6.28-8.15,19-8.52,22.79-.11,1.1-.07,1.23.4,1.53a3,3,0,0,0,1.32.31c.77,0,.84-.06,1.17-.84a19.65,19.65,0,0,0,.68-2.5,62,62,0,0,1,10.24-23.81c2.56-3.55,3.69-5.43,3.49-5.91S701.06,358,699.61,358.69Z" transform="translate(-353.5 -293.26)"/><path class="cls-1" d="M505.67,362.73l-.48.36.66,1.17a57.23,57.23,0,0,0,3.58,4.79c1.61,2,3.39,4.36,4,5.26a55.57,55.57,0,0,1,7.59,17.4c1.15,4.39,1.1,4.35,2.43,4.12,1.72-.28,1.79-1,.57-5.24-3-10.43-9.86-24.15-13.5-26.9C508.94,362.48,506.64,362,505.67,362.73Z" transform="translate(-353.5 -293.26)"/><path class="cls-1" d="M731.49,373.94a11.51,11.51,0,0,0-1.61,4.69c-.53,4.44-3.73,10.23-9.8,17.77-1.32,1.63-2.49,3.18-2.62,3.43-.31.61.22,1,1.81,1.5s2,.19,2.73-1.3c.29-.57,1.88-3.12,3.51-5.65A72.09,72.09,0,0,0,731,385a21.64,21.64,0,0,0,2.25-8.54c0-1.63,0-1.72-.6-2.29S731.85,373.45,731.49,373.94Z" transform="translate(-353.5 -293.26)"/><path class="cls-1" d="M675.6,376.24a15.45,15.45,0,0,0-1.33,2.1c-1.92,3.77-4.61,18.29-4.63,24.87,0,6.42,2.18,15.29,5,20.26,1.84,3.24,3.62,4.38,6.63,4.24s4.52-1.69,5-5.56c.35-3,.13-10-.35-11.68-.84-2.86-3.36-6.67-7.06-10.6-2.67-2.84-3.62-4.47-3.8-6.51-.2-2.32.51-9.19,1.5-14.75C677.12,375.12,676.9,374.53,675.6,376.24Z" transform="translate(-353.5 -293.26)"/><path class="cls-1" d="M476.65,377.87c-1.19.21-1.43,1.39-1,4.53.66,4.46,2.52,8.44,7.44,16,1.34,2.06,2.85,4.44,3.33,5.3,1.21,2.14,1.5,2.38,2.83,2.08s2.29-.74,2.29-1.16a18.24,18.24,0,0,0-2.16-3.08,58.3,58.3,0,0,1-9.31-16.27,19.45,19.45,0,0,1-1.33-5.68C478.75,378,478.27,377.55,476.65,377.87Z" transform="translate(-353.5 -293.26)"/><path class="cls-1" d="M645.12,379.48a20.36,20.36,0,0,0-.44,3.69,46.49,46.49,0,0,1-2,11.6,59.94,59.94,0,0,1-8.14,17.29c-2.27,3.4-2.91,3.93-5.43,4.6a33.27,33.27,0,0,0-13.46,6.73c-7.37,5.83-11.21,12.49-11.21,19.47a5.34,5.34,0,0,0,.48,3c.73,1.31,1.4,1.55,4.73,1.55,5.27,0,7.59-.79,11-3.73,6-5.14,13.15-15,17.81-24.7,3.09-6.44,5-13.38,6.62-24.59,1-6.64,1.41-13.2.93-14.71C645.85,379,645.45,379,645.12,379.48Z" transform="translate(-353.5 -293.26)"/><path class="cls-1" d="M532,379.91a21.6,21.6,0,0,0,.44,3.71c.69,4.12.95,6.16,1.24,9.46.53,6.2.22,7.11-4,11.56-2.94,3.1-5.57,6.93-6.47,9.47-1,2.92-1.1,12.07-.11,15a4.78,4.78,0,0,0,3.2,2.85,4.91,4.91,0,0,0,2.58.14,9.12,9.12,0,0,0,2.25-.73c4.13-2.14,8.37-15.39,8-25-.31-7.77-2.93-20.79-4.92-24.26C533.3,380.42,532.24,379.4,532,379.91Z" transform="translate(-353.5 -293.26)"/><path class="cls-1" d="M742.15,388.57c-.42.37-1.83,1.94-3.13,3.49-3.66,4.3-10.44,10.17-13.71,11.86-1.67.88-2.93,1.06-8.89,1.25s-8.8.53-11.54,1.46c-5.72,1.9-11.65,6-13.51,9.4s-.7,5.79,3.23,6.71a14.63,14.63,0,0,0,6.37-.17,44.58,44.58,0,0,0,15.12-6.29c7.28-4.63,18.56-15.07,23.55-21.81a41.15,41.15,0,0,0,3.92-6.3C743.56,387.7,743,387.88,742.15,388.57Z" transform="translate(-353.5 -293.26)"/><path class="cls-1" d="M666.39,392.49c-2.25,1.69-5.49,13.72-6.93,25.84s2.5,26.05,8.15,29a4.91,4.91,0,0,0,2.82.53,4,4,0,0,0,2.67-.53c2.34-1.37,3.4-4.34,3.4-9.46,0-6.21-1.43-9.42-7.88-17.89-3.44-4.49-4.26-6.43-4.28-10,0-2.12.31-4.18,1.79-11.83.59-3.16,1.06-5.85,1-5.95S666.77,392.22,666.39,392.49Z" transform="translate(-353.5 -293.26)"/><path class="cls-1" d="M465.4,392.41c-.24.34.15,1.26,1.52,3.64,2,3.37,4.5,6.94,5.5,7.75.48.37,4.06,3.53,8,7,9.16,8.14,12.85,10.74,19.23,13.5,4.92,2.12,9.07,3.12,12.55,3a7.81,7.81,0,0,0,3.49-.61c2.36-1,3.11-2.44,2.51-4.62-.72-2.63-2.89-5-6.75-7.44a38.7,38.7,0,0,0-9.22-4.16c-2.14-.53-4.88-.76-10.86-1-5.63-.19-6.55-.37-8.52-1.59a69.1,69.1,0,0,1-13.28-11.8c-1.92-2.27-3.56-3.88-3.91-3.88C465.58,392.22,465.49,392.3,465.4,392.41Z" transform="translate(-353.5 -293.26)"/><path class="cls-1" d="M541.64,396.63c0,.18.49,2.85,1.11,5.95,1.92,9.8,2.14,12.41,1.34,15.2-.57,2-1.39,3.37-4.14,7-6.27,8.27-7.62,11.37-7.6,17.69,0,6.54,2.08,9.9,6.09,9.9,4.31,0,7.75-4.62,9.91-13.24,2-7.89,1.77-15.46-.77-27.5-1.81-8.69-3.73-13.94-5.47-15C541.69,396.34,541.64,396.36,541.64,396.63Z" transform="translate(-353.5 -293.26)"/><path class="cls-1" d="M733.88,403.7c-.62.61-2.54,3-4.26,5.26-6,8-9.18,11.35-12.65,13.39-3.86,2.28-5.43,2.59-13.81,2.83-7.26.17-7.9.29-11.63,2-9,4-14.48,11.13-10.81,14.08,1.74,1.41,4.89,1.49,10.5.25,11.19-2.45,22-9.25,31.29-19.61,6.4-7.15,13.75-18.16,12.74-19.06C735.09,402.66,734.65,403,733.88,403.7Z" transform="translate(-353.5 -293.26)"/><path class="cls-1" d="M644.94,407.33a13,13,0,0,0-.24,2.32c0,4-1.68,12.25-3.55,17.47-1.79,4.91-7.39,14.08-9.62,15.72a7.61,7.61,0,0,1-2.59,1,26.86,26.86,0,0,0-8.51,3.39c-7.09,4.18-13.24,11.15-15.36,17.32-1,3-.82,8,.44,9.42l.53.59,3.51,0c5.62,0,7.79-.71,11-3.48,4.68-4,9.23-10.13,14.94-20.16,4.35-7.61,5.76-10.91,7.31-17.17,2.44-9.82,4.14-24.27,3.17-26.78C645.65,406.06,645.21,406.19,644.94,407.33Z" transform="translate(-353.5 -293.26)"/><path class="cls-1" d="M473.45,407.53c0,2,7.33,12.54,13.33,19.24a88.69,88.69,0,0,0,12.1,10.7c7.48,5.12,15.53,8.32,23.15,9.16,3.62.4,6-.27,6.93-1.92a4.87,4.87,0,0,0-.51-4.34c-1.94-3.41-6.07-6.61-11.54-9-3.76-1.61-4.17-1.67-11.79-1.86-7.21-.18-7.81-.28-10.59-1.46-4.92-2.06-7.88-4.87-14.85-14.11-3.84-5.07-5.36-6.81-5.92-6.81A.35.35,0,0,0,473.45,407.53Z" transform="translate(-353.5 -293.26)"/><path class="cls-1" d="M654.08,416.11a66,66,0,0,0-4.5,15.47c-2.65,16.35,1.1,32.17,8.41,35.41,3,1.35,5.38.43,6.57-2.59a20.57,20.57,0,0,0,.77-10.23c-.92-4.69-4-10.42-8.23-15.19-2-2.22-2.58-3.1-3.11-4.5-1-2.49-.84-5.14.55-12.52,1-5.22,1.17-7.56.69-7.56C655,414.4,654.61,415,654.08,416.11Z" transform="translate(-353.5 -293.26)"/><path class="cls-1" d="M553.41,420.43c.08,1,.48,3.59.9,5.87s.91,5.32,1.06,6.79a10.67,10.67,0,0,1-.11,4.3,11.22,11.22,0,0,1-3,5.47,36.61,36.61,0,0,0-8.27,14,22.21,22.21,0,0,0-.55,8.58c.86,5.12,2.93,7.26,6.29,6.4,8.49-2.2,12.75-19.95,9.18-38.24a73.43,73.43,0,0,0-3.11-10.7C554,418.37,553.16,417.48,553.41,420.43Z" transform="translate(-353.5 -293.26)"/><path class="cls-1" d="M720.5,428.51c-.81.46-2,1.61-7.08,6.6-5.19,5.14-7.94,7.6-9.16,8.11-1.59.68-3.9,1-11.36,1.61-7.79.63-12.34,1.61-15.67,3.35-2.69,1.42-5.85,4.7-8,8.31-.88,1.51-.88,2.29,0,3.47,1.21,1.59,1.46,1.65,6.14,1.65,5.67,0,8-.53,13.35-2.88,8.89-4,20-12.76,26.3-20.77,2.56-3.28,6.38-9.19,6.2-9.62C721.19,428.24,720.88,428.32,720.5,428.51Z" transform="translate(-353.5 -293.26)"/><path class="cls-1" d="M645.39,432.72c-.36.78-.64,2.66-1,6.51a52.77,52.77,0,0,1-4.79,18.16c-1.59,3.5-6.27,11.13-7.52,12.33-.73.69-1.44,1-3.67,1.39-7.72,1.51-17.23,8.5-21.29,15.69a21.11,21.11,0,0,0-2.74,10.74c.13,2.27.57,3.16,1.9,3.8,2,1,6.46.71,9.64-.64,5.87-2.5,12.69-10.33,19.73-22.7A69.87,69.87,0,0,0,644,456.23a118.44,118.44,0,0,0,2.1-19.84C646.07,432.77,645.85,431.62,645.39,432.72Z" transform="translate(-353.5 -293.26)"/><path class="cls-1" d="M487.84,433.66c.22,2,2.94,5.95,7.42,10.77a134.56,134.56,0,0,0,13.39,11.86c7.11,5.24,14.9,8.91,20.37,9.56a49.54,49.54,0,0,0,5.28.14c4-.06,4.28-.16,5.38-1.69.88-1.24.84-1.94-.29-3.75-5-8.11-9.84-10.38-24.34-11.4-6.24-.44-9.51-1-11-1.81-1.21-.69-3.9-3.12-9.31-8.5C487.89,432,487.64,431.85,487.84,433.66Z" transform="translate(-353.5 -293.26)"/><path class="cls-1" d="M712.18,444c-.5.51-1.87,2.18-3,3.67-4.83,6.32-7.88,9.45-12.31,12.59-5,3.51-7.09,4.14-12.87,3.77a25.08,25.08,0,0,0-13.42,2.35c-4.52,2-8.51,4.91-10.15,7.34a13.24,13.24,0,0,0-1.92,4.87c-.11,1-.06,1.18.38,1.63.68.71,3.51,1.71,5.16,1.83,2.43.19,7.7-.81,11.17-2.08,5-1.87,8.54-4.38,20.26-14.33,6.09-5.19,7.72-6.48,7.72-6.17s-4.7,7.54-6.29,9.72c-.82,1.1-2.21,2.86-3.07,3.89a65.56,65.56,0,0,1-9.29,8.4c-2.25,1.49-3.33,1.72-9.88,2.18-10.49.74-14.61,1.74-19.78,4.81-4.63,2.74-6.46,5.24-6.79,9.26-.16,2,0,2.32,1.61,3a15.94,15.94,0,0,0,7.61.6,30.32,30.32,0,0,0,9.36-2.8c8.67-3.79,17.28-10.52,25.6-20a90.13,90.13,0,0,0,13.44-20.57,56.47,56.47,0,0,1,3.2-5.52,39.68,39.68,0,0,0,4.08-7.14C714,442.84,713.73,442.49,712.18,444Z" transform="translate(-353.5 -293.26)"/><path class="cls-1" d="M646.49,446.63c0,.3.24,4,.55,8.25.33,4.42.6,9.68.62,12.33a34.65,34.65,0,0,1-.71,8.63c-1.23,7-1.21,6-.26,10a37.65,37.65,0,0,0,.95,3.69c.22.17,2.25-.49,3.66-1.22a7.81,7.81,0,0,0,4.19-5.4,35.92,35.92,0,0,0,.27-9,22.12,22.12,0,0,0-3.11-8.82,46.71,46.71,0,0,1-5.19-15c-.33-1.67-.68-3.26-.77-3.54l-.18-.49Z" transform="translate(-353.5 -293.26)"/><path class="cls-1" d="M495.39,448.24c.31,1.48,2.41,5.44,4.44,8.35a49.51,49.51,0,0,1,4,7,92,92,0,0,0,28.64,33.85,57.45,57.45,0,0,0,14.83,7.42c5.08,1.47,11,1.31,13-.38.45-.37.53-.62.53-1.62a11.29,11.29,0,0,0-1.25-5,17.14,17.14,0,0,0-5.37-4.91c-5.32-3.18-10.17-4.32-20.85-5-6.09-.37-6.84-.56-9.84-2.7a51.64,51.64,0,0,1-11.3-11.37c-2.83-3.81-6.8-10.07-6.38-10.07.2,0,2.78,2.14,10.24,8.46,11.59,9.83,15.62,12.17,23.68,13.66,3.75.71,5.36.67,7.66-.12,2.69-.92,2.93-1.13,2.91-2.45a11.27,11.27,0,0,0-1.77-5c-2.49-3.79-8.76-7.64-15.31-9.39-1.79-.49-2.14-.51-7.84-.53-6.59,0-6.88-.08-9.44-1.35a43.84,43.84,0,0,1-7.42-5.13,58,58,0,0,1-8.18-9c-3.09-4-4.31-5.39-4.79-5.39C495.32,447.58,495.28,447.71,495.39,448.24Z" transform="translate(-353.5 -293.26)"/><path class="cls-1" d="M644.94,460.57c-.11.57-.26,2.36-.33,4-.46,10.2-2.67,16.27-10.59,29.19-2.67,4.35-2,3.88-5.58,4.28-5,.57-7.77,1.94-12.12,5.92-5.07,4.68-9,9.47-10.55,13a19.91,19.91,0,0,0-1.34,8.6,4.84,4.84,0,0,0,4.28,3.63,15.85,15.85,0,0,0,5.56-.88c5.91-2,12-8.21,19.26-19.69a75.93,75.93,0,0,0,11.61-32.16c.69-5.2,1.17-15.6.75-16.57C645.61,459.22,645.16,459.55,644.94,460.57Z" transform="translate(-353.5 -293.26)"/><path class="cls-1" d="M559.3,465.14a35.86,35.86,0,0,0-5.21,8.27c-.46,1.53-.68,8.68-.33,11.31.44,3.43,1.43,5.38,3.13,6.14a25.86,25.86,0,0,0,5.61.85,33.67,33.67,0,0,0-.42-4.21,80.22,80.22,0,0,1-1-13.82c.11-7.71.06-8.59-.56-9.32C560.27,464,560.16,464.1,559.3,465.14Z" transform="translate(-353.5 -293.26)"/><path class="cls-1" d="M645.3,487.11a46.56,46.56,0,0,0-.93,6.79c-.9,9.23-2.67,14.14-8.92,24.72-3.55,6-4.21,6.69-6.42,6.69-1.28,0-3.75.79-6.79,2.14-6.14,2.73-9.52,5.48-13.8,11.21-1.74,2.36-2.62,4-2.53,4.71.13,1,.42,1.08,12.09,1.14l10.7.06.82-1.63C630,542,632,538,634,534.05c8.38-16.49,9.62-19.81,10.9-29,1-6.91,1.52-16.51,1-17.82C645.76,486.78,645.47,486.7,645.3,487.11Z" transform="translate(-353.5 -293.26)"/><path class="cls-1" d="M686.92,489c-.8.68-3.27,3-5.48,5.26-4.61,4.63-6.88,6.59-8.54,7.46-2.36,1.21-4.3,1.51-12.53,2-6.07.33-9.49,1-12.89,2.34l-1.34.54-.53,2.44a71.67,71.67,0,0,1-2.87,9.85l-.67,1.55,4.13-.07,4.13-.08,2-.75a90,90,0,0,0,15.14-8.36c7.08-5.07,17-15,20.5-20.44.75-1.17,1.17-2.92.69-2.92A7.91,7.91,0,0,0,686.92,489Z" transform="translate(-353.5 -293.26)"/><path class="cls-1" d="M520,492.77c0,3.27,12,16,21.49,22.86a89.36,89.36,0,0,0,14.74,8.15c2.65,1,4.55,1.32,9.14,1.34,3.55,0,3.82,0,4.5-.45,4.37-2.62-.64-9.94-9.8-14.35-3.37-1.63-4.92-1.93-12.49-2.28-11.32-.53-11.58-.67-20.92-10.07-3.9-3.93-5.29-5.2-6.2-5.64C520.06,492.14,520,492.18,520,492.77Z" transform="translate(-353.5 -293.26)"/><path class="cls-1" d="M681.09,501.5a55.28,55.28,0,0,0-4.92,6c-4.52,5.87-9.31,10.74-12.91,13.11a10.64,10.64,0,0,1-5.67,2,61,61,0,0,1-10.48,0,9.8,9.8,0,0,0-2.21-.11,22.51,22.51,0,0,0-3,1.53l-2.51,1.41-2.16,4a82.43,82.43,0,0,0-5.19,11l-1.19,3h1c3.07,0,8.78-2.14,12.05-4.47,1-.75,3.86-2.59,6.29-4.07,7.74-4.77,10.17-6.51,14.61-10.52,8.21-7.42,16.19-17.94,17.39-22.91C682.3,500.58,682,500.6,681.09,501.5Z" transform="translate(-353.5 -293.26)"/><path class="cls-1" d="M526.75,505.31c-.33.76,2,5.32,4.81,9.32a94,94,0,0,0,10.88,12.55c4.37,4.22,8.14,7,15.69,11.66,2.69,1.67,5.56,3.49,6.38,4.06a11,11,0,0,0,2.27,1.28c.49.14,3.66.25,7.94.31l7.13.1-.09-2.51c-.08-2.44-.11-2.59-.88-4a9.23,9.23,0,0,0-2.63-3,59.25,59.25,0,0,0-10.19-6.2c-2.85-1.28-3.55-1.38-10.2-1.57-5.65-.18-8.34-.44-9.9-1-2-.66-7-4.77-10.33-8.44-1.59-1.76-2.54-2.92-7.06-8.65C528,506,527,504.9,526.75,505.31Z" transform="translate(-353.5 -293.26)"/><path class="cls-1" d="M818.73,704,842,634.81H633.6L656.89,704a7,7,0,0,0,6.68,4.52H666a31.67,31.67,0,0,1,50.73,0h42.76a31.67,31.67,0,0,1,50.73,0h1.81A6.93,6.93,0,0,0,818.73,704Z" transform="translate(-353.5 -293.26)"/><path class="cls-1" d="M846.33,622l2.08-5.94a6.16,6.16,0,0,0-1.07-5.78,7.31,7.31,0,0,0-5.64-2.7h-9.13a34.54,34.54,0,0,0,.77-7.31c0-21.43-19-38.73-42.37-38.73-1.65,0-3.27.15-4.86.3-.84-14.91-14.32-26.72-30.77-26.72a32.83,32.83,0,0,0-16.72,4.51,32.79,32.79,0,0,0-16.71-4.51c-16.49,0-29.93,11.84-30.78,26.74a45.35,45.35,0,0,0-4.85-.26c-23.43,0-42.41,17.21-42.41,38.67a35.89,35.89,0,0,0,.78,7.31H633.93a7.4,7.4,0,0,0-5.64,2.79,5.79,5.79,0,0,0-1.07,5.61l2.07,6Z" transform="translate(-353.5 -293.26)"/><path class="cls-1" d="M785.89,738.52c8.45-.47,15.16-6.88,15.16-14.75,0-8.19-7.23-14.81-16.17-14.81s-16.16,6.62-16.16,14.81a14.43,14.43,0,0,0,6.48,11.84,161.18,161.18,0,0,0-18.89-3.08,176,176,0,0,0-18-.92,173.86,173.86,0,0,0-18.3.95,155.92,155.92,0,0,0-19,3.14,14.42,14.42,0,0,0,6.58-11.9c0-8.19-7.22-14.81-16.16-14.81s-16.17,6.62-16.17,14.81c0,7.93,6.8,14.4,15.36,14.78a104.61,104.61,0,0,0-10.37,3.95c-2.43,1.1-4.7,2.05-6.8,3.27-12.9,7.3-19.89,17.21-19.89,26.83H823.14c0-9.62-7.1-19.59-20.09-26.92-2.07-1.16-4.27-2.17-6.6-3.24A103,103,0,0,0,785.89,738.52Z" transform="translate(-353.5 -293.26)"/></g></svg>