<svg xmlns="http://www.w3.org/2000/svg" viewBox="0 0 323.76 104.71"><defs><style>.cls-1,.cls-2{fill:#fff;}.cls-1{stroke:#fff;stroke-miterlimit:10;stroke-width:4px;}</style></defs><title>Asset 4</title><g id="Layer_2" data-name="Layer 2"><g id="Layer_1-2" data-name="Layer 1"><polyline class="cls-1" points="78.68 62.53 2.33 34.77 2.03 2.83 78.37 29.74"/><polyline class="cls-1" points="78.05 62.53 154.4 34.77 154.7 2.83 78.37 29.74"/><polyline class="cls-1" points="79 102.83 2.65 75.07 2.34 43.13 78.68 70.04"/><polyline class="cls-1" points="78.37 102.83 154.71 75.07 155.02 43.13 78.68 70.04"/><path class="cls-2" d="M251.64,21.85h1.07v7.62h-1.07Zm.54,6.61h4.38v1h-4.38Z"/><path class="cls-2" d="M259.19,29.55l-.53-.28a1.93,1.93,0,0,1-.82-.83,2.87,2.87,0,0,1-.28-1.33V26.5a3.2,3.2,0,0,1,.27-1.38,1.91,1.91,0,0,1,.79-.87,2.4,2.4,0,0,1,1.24-.3,2.07,2.07,0,0,1,1.17.34,2.16,2.16,0,0,1,.74,1,4.2,4.2,0,0,1,.25,1.55v.35h-3.68v-.86H261a1.85,1.85,0,0,0-.34-1,1,1,0,0,0-.8-.37,1.17,1.17,0,0,0-.95.4,1.7,1.7,0,0,0-.33,1.12v.69a1.4,1.4,0,0,0,.36,1,1.36,1.36,0,0,0,1,.36,1.64,1.64,0,0,0,.65-.13,1.78,1.78,0,0,0,.57-.36l.71.7a2.88,2.88,0,0,1-.91.6,2.66,2.66,0,0,1-1,.21Z"/><path class="cls-2" d="M264.2,29.31a1.71,1.71,0,0,1-.64-.76,2.89,2.89,0,0,1-.22-1.2v-1.2a3.14,3.14,0,0,1,.21-1.2,1.68,1.68,0,0,1,.63-.75,1.8,1.8,0,0,1,1-.26,1.61,1.61,0,0,1,.88.25,1.79,1.79,0,0,1,.65.71L266.6,26a1.32,1.32,0,0,0-.12-.59.9.9,0,0,0-.37-.38,1.27,1.27,0,0,0-.58-.13,1.06,1.06,0,0,0-.83.33,1.38,1.38,0,0,0-.29.93v1.18a1.35,1.35,0,0,0,.29.92,1.08,1.08,0,0,0,.83.32,1.16,1.16,0,0,0,.58-.13.93.93,0,0,0,.37-.39,1.4,1.4,0,0,0,.12-.6l.08,1.15a1.52,1.52,0,0,1-.54.67,1.45,1.45,0,0,1-.91.28A2,2,0,0,1,264.2,29.31Zm2.4-7.46h1.08v7.62H266.6Z"/><path class="cls-2" d="M272.2,21.85h1.08v7.62H272.2Zm1.56,7.46a1.52,1.52,0,0,1-.56-.69l.08-1.14a1.4,1.4,0,0,0,.12.6,1,1,0,0,0,.37.38,1.27,1.27,0,0,0,.58.13,1.06,1.06,0,0,0,.83-.33,1.31,1.31,0,0,0,.29-.91V26.17a1.37,1.37,0,0,0-.29-.92,1.06,1.06,0,0,0-.83-.33,1.28,1.28,0,0,0-.58.12.94.94,0,0,0-.37.37,1.35,1.35,0,0,0-.12.59L273.17,25a1.94,1.94,0,0,1,.64-.74,1.65,1.65,0,0,1,.89-.26,1.88,1.88,0,0,1,1,.26,1.76,1.76,0,0,1,.63.76,3.07,3.07,0,0,1,.21,1.2v1.18a2.84,2.84,0,0,1-.22,1.19,1.6,1.6,0,0,1-.65.75,1.93,1.93,0,0,1-1,.26A1.62,1.62,0,0,1,273.76,29.31Z"/><path class="cls-2" d="M277.28,24h1.09l1.68,4.73-.59,1.16Zm4.84,0-2.33,6.72a1.6,1.6,0,0,1-.33.59,1.32,1.32,0,0,1-.51.31,2.55,2.55,0,0,1-.73.09H278v-1h.22a.8.8,0,0,0,.47-.12.92.92,0,0,0,.31-.41L281,24Z"/><path class="cls-2" d="M286.2,29.13a1.83,1.83,0,0,1,0-2.47,2,2,0,0,1,1.38-.41h1.55l.08.86h-1.63a.9.9,0,0,0-.62.19.85.85,0,0,0,.06,1.18,1.49,1.49,0,0,0,.84.2,2.36,2.36,0,0,0,.92-.13.43.43,0,0,0,.31-.41l.11.77a1.5,1.5,0,0,1-.35.36,1.69,1.69,0,0,1-.49.21,2.86,2.86,0,0,1-2.12-.35ZM289.05,26a1.16,1.16,0,0,0-.29-.83,1.1,1.1,0,0,0-.81-.29,2.16,2.16,0,0,0-1.2.37l-.78-.53a2,2,0,0,1,.81-.58,3,3,0,0,1,1.13-.21,2.63,2.63,0,0,1,1.17.24,1.63,1.63,0,0,1,.73.69,2.24,2.24,0,0,1,.26,1.1v3.49h-1Z"/><path class="cls-2" d="M225.45,59.2l-1.5-.88a5.9,5.9,0,0,1-2.34-2.48,8.11,8.11,0,0,1-.83-3.74V46.87a8.07,8.07,0,0,1,.83-3.73,6,6,0,0,1,2.34-2.5,6.75,6.75,0,0,1,3.49-.88,6.56,6.56,0,0,1,3,.7,6.47,6.47,0,0,1,2.31,2,7.45,7.45,0,0,1,1.26,3h-2.76a4.11,4.11,0,0,0-.83-1.59,4,4,0,0,0-1.38-1.08,3.61,3.61,0,0,0-1.63-.38A3.63,3.63,0,0,0,224,44.51a5.32,5.32,0,0,0-.49,2.36V52.1a5.35,5.35,0,0,0,.49,2.36A3.66,3.66,0,0,0,225.39,56a3.77,3.77,0,0,0,2.05.55,3.87,3.87,0,0,0,1.64-.35,3.73,3.73,0,0,0,1.37-1.05,4,4,0,0,0,.83-1.65H234a7.47,7.47,0,0,1-1.27,3,6.47,6.47,0,0,1-2.31,2,6.58,6.58,0,0,1-3,.7Z"/><path class="cls-2" d="M239.79,58.51a4.57,4.57,0,0,1-1.93-2,7.1,7.1,0,0,1-.67-3.2V51.07a7,7,0,0,1,.67-3.17,4.5,4.5,0,0,1,1.93-2,7,7,0,0,1,6.08,0,4.61,4.61,0,0,1,1.93,2,7,7,0,0,1,.66,3.17v2.25a7,7,0,0,1-.66,3.18,4.68,4.68,0,0,1-1.93,2,7,7,0,0,1-6.08,0ZM245,55.78a3.61,3.61,0,0,0,.77-2.46V51.07a3.56,3.56,0,0,0-.77-2.45,3.17,3.17,0,0,0-4.36,0,3.56,3.56,0,0,0-.77,2.45v2.25a3.61,3.61,0,0,0,.77,2.46,3.14,3.14,0,0,0,4.36,0Z"/><path class="cls-2" d="M252.28,45.41H255V59h-2.68ZM258.9,48a3.44,3.44,0,0,0-1.25-.22,2.67,2.67,0,0,0-2,.7A2.64,2.64,0,0,0,255,50.4l-.27-2.62a4.93,4.93,0,0,1,1.63-1.9,3.86,3.86,0,0,1,2.21-.67,5,5,0,0,1,1.69.27,3.66,3.66,0,0,1,1.32.79l-1.75,2.36A2.19,2.19,0,0,0,258.9,48Z"/><path class="cls-2" d="M263.78,45.41h2.69V64.54h-2.69Zm3.9,13.18a3.57,3.57,0,0,1-1.4-1.72l.19-2.84a3.25,3.25,0,0,0,.31,1.49,2.14,2.14,0,0,0,.92.94,3,3,0,0,0,1.45.33,2.64,2.64,0,0,0,2.06-.8,3.27,3.27,0,0,0,.73-2.28v-3a3.35,3.35,0,0,0-.73-2.31,2.6,2.6,0,0,0-2.06-.83,3.08,3.08,0,0,0-1.45.31,2.12,2.12,0,0,0-.92.93,3.12,3.12,0,0,0-.31,1.46l-.28-2.62a4.63,4.63,0,0,1,1.62-1.84,4,4,0,0,1,2.22-.65,4.62,4.62,0,0,1,2.49.65,4.1,4.1,0,0,1,1.57,1.89,7.52,7.52,0,0,1,.54,3v3a7.14,7.14,0,0,1-.56,3,4,4,0,0,1-1.61,1.88,4.78,4.78,0,0,1-2.56.65A4,4,0,0,1,267.68,58.59Z"/><path class="cls-2" d="M280.64,58.51a4.68,4.68,0,0,1-1.93-2,7.11,7.11,0,0,1-.66-3.2V51.07a7,7,0,0,1,.66-3.17,4.61,4.61,0,0,1,1.93-2,7,7,0,0,1,6.08,0,4.5,4.5,0,0,1,1.93,2,6.87,6.87,0,0,1,.67,3.17v2.25a6.91,6.91,0,0,1-.67,3.18,4.57,4.57,0,0,1-1.93,2,7,7,0,0,1-6.08,0Zm5.22-2.73a3.61,3.61,0,0,0,.77-2.46V51.07a3.56,3.56,0,0,0-.77-2.45,3.17,3.17,0,0,0-4.36,0,3.56,3.56,0,0,0-.76,2.45v2.25a3.6,3.6,0,0,0,.76,2.46,3.14,3.14,0,0,0,4.36,0Z"/><path class="cls-2" d="M293.13,45.41h2.69V59h-2.69ZM299.75,48a3.37,3.37,0,0,0-1.25-.22,2.67,2.67,0,0,0-2,.7,2.63,2.63,0,0,0-.7,1.95l-.28-2.62a5,5,0,0,1,1.63-1.9,3.89,3.89,0,0,1,2.22-.67,5,5,0,0,1,1.69.27,3.84,3.84,0,0,1,1.32.79l-1.75,2.36A2.29,2.29,0,0,0,299.75,48Z"/><path class="cls-2" d="M305.23,58.16A3.89,3.89,0,0,1,304,55a3.83,3.83,0,0,1,1.14-3,5.15,5.15,0,0,1,3.47-1h3.88l.18,2.15h-4a2.23,2.23,0,0,0-1.57.47,1.78,1.78,0,0,0-.52,1.42,1.76,1.76,0,0,0,.69,1.53,3.61,3.61,0,0,0,2.1.5,6,6,0,0,0,2.29-.33,1.08,1.08,0,0,0,.76-1l.28,1.91a3.18,3.18,0,0,1-.88.91,4,4,0,0,1-1.2.53,6.6,6.6,0,0,1-1.54.17A5.76,5.76,0,0,1,305.23,58.16Zm7.12-7.78a2.83,2.83,0,0,0-.72-2.07,2.65,2.65,0,0,0-2-.74,5.14,5.14,0,0,0-1.6.25,4.64,4.64,0,0,0-1.39.69l-2-1.34a5.07,5.07,0,0,1,2.05-1.44,7.3,7.3,0,0,1,2.82-.52,6.51,6.51,0,0,1,2.91.6,4.06,4.06,0,0,1,1.84,1.73,5.51,5.51,0,0,1,.64,2.73V59h-2.56Z"/><path class="cls-2" d="M321.67,55.49a1.16,1.16,0,0,0,.22.77.73.73,0,0,0,.61.27h1.26v2.54h-1.58a3,3,0,0,1-2.36-.94,3.87,3.87,0,0,1-.83-2.66V40h2.68Z"/></g></g></svg>