<?xml version="1.0" standalone="no"?>
<!DOCTYPE svg PUBLIC "-//W3C//DTD SVG 20010904//EN"
 "http://www.w3.org/TR/2001/REC-SVG-20010904/DTD/svg10.dtd">
<svg version="1.0" xmlns="http://www.w3.org/2000/svg"
 width="1235.000000pt" height="1280.000000pt" viewBox="0 0 1235.000000 1280.000000"
 preserveAspectRatio="xMidYMid meet">
<metadata>
Created by potrace 1.15, written by Peter Selinger 2001-2017
</metadata>
<g transform="translate(0.000000,1280.000000) scale(0.100000,-0.100000)"
fill="#000000" stroke="none">
<path d="M5110 12793 c-882 -32 -1499 -226 -2189 -685 -436 -290 -807 -609
-1481 -1273 -462 -456 -667 -645 -750 -696 -14 -9 -42 -19 -63 -22 -60 -9
-121 -43 -246 -137 -64 -47 -156 -114 -206 -147 -120 -81 -149 -112 -143 -154
4 -22 0 -37 -14 -51 -22 -22 -23 -63 -3 -160 50 -239 176 -464 378 -675 117
-121 207 -194 329 -265 95 -55 233 -104 270 -95 104 26 411 388 514 606 31 64
65 136 77 161 12 25 54 78 92 119 150 159 754 614 976 735 76 42 132 46 282
22 209 -34 321 -127 525 -436 127 -192 239 -346 652 -895 536 -712 854 -1145
1355 -1850 448 -630 678 -943 1399 -1910 604 -809 841 -1133 1356 -1845 216
-300 669 -921 1005 -1380 336 -459 715 -979 842 -1155 365 -505 434 -589 499
-601 46 -8 152 17 277 66 361 141 923 569 1102 839 113 172 344 606 386 728
31 90 27 106 -38 175 -74 77 -318 296 -698 623 -762 658 -993 888 -1726 1725
-691 789 -1232 1432 -2304 2740 -699 853 -942 1143 -1479 1770 -1093 1275
-1495 1778 -1756 2200 -122 197 -145 251 -144 330 2 77 40 214 90 320 84 179
185 263 539 446 487 252 840 354 1715 494 319 51 426 84 455 140 41 79 2 101
-225 129 -444 56 -1146 83 -1650 64z"/>
</g>
</svg>
