<svg id="Layer_1" data-name="Layer 1" xmlns="http://www.w3.org/2000/svg" viewBox="0 0 1234.9 1279.65"><defs><style>.cls-1{fill:#fff;}</style></defs><title>hammerWhite</title><path class="cls-1" d="M511,.7C422.8,3.9,361.1,23.3,292.1,69.2c-43.6,29-80.7,60.9-148.1,127.3C97.8,242.1,77.3,261,69,266.1a18.72,18.72,0,0,1-6.3,2.2c-6,.9-12.1,4.3-24.6,13.7-6.4,4.7-15.6,11.4-20.6,14.7-12,8.1-14.9,11.2-14.3,15.4a5.15,5.15,0,0,1-1.4,5.1c-2.2,2.2-2.3,6.3-.3,16Q9,369.05,39.3,400.7C51,412.8,60,420.1,72.2,427.2c9.5,5.5,23.3,10.4,27,9.5,10.4-2.6,41.1-38.8,51.4-60.6,3.1-6.4,6.5-13.6,7.7-16.1s5.4-7.8,9.2-11.9c15-15.9,75.4-61.4,97.6-73.5,7.6-4.2,13.2-4.6,28.2-2.2,20.9,3.4,32.1,12.7,52.5,43.6,12.7,19.2,23.9,34.6,65.2,89.5,53.6,71.2,85.4,114.5,135.5,185,44.8,63,67.8,94.3,139.9,191C746.8,862.4,770.5,894.8,822,966c21.6,30,66.9,92.1,100.5,138s71.5,97.9,84.2,115.5c36.5,50.5,43.4,58.9,49.9,60.1,4.6.8,15.2-1.7,27.7-6.6,36.1-14.1,92.3-56.9,110.2-83.9,11.3-17.2,34.4-60.6,38.6-72.8,3.1-9,2.7-10.6-3.8-17.5-7.4-7.7-31.8-29.6-69.8-62.3-76.2-65.8-99.3-88.8-172.6-172.5-69.1-78.9-123.2-143.2-230.4-274-69.9-85.3-94.2-114.3-147.9-177C499.3,285.5,459.1,235.2,433,193c-12.2-19.7-14.5-25.1-14.4-33,.2-7.7,4-21.4,9-32,8.4-17.9,18.5-26.3,53.9-44.6C530.2,58.2,565.5,48,653,34c31.9-5.1,42.6-8.4,45.5-14,4.1-7.9.2-10.1-22.5-12.9C631.6,1.5,561.4-1.2,511,.7Z" transform="translate(-0.07 -0.1)"/></svg>