<?xml version="1.0" encoding="utf-8"?>
<!-- Generator: Adobe Illustrator 23.0.1, SVG Export Plug-In . SVG Version: 6.00 Build 0)  -->
<svg version="1.1" id="Capa_1" xmlns="http://www.w3.org/2000/svg" xmlns:xlink="http://www.w3.org/1999/xlink" x="0px" y="0px"
	 viewBox="0 0 800 800" style="enable-background:new 0 0 800 800;" xml:space="preserve">
<style type="text/css">
	.st0{fill:#FFFFFF;}
</style>
<g>
	<path class="st0" d="M649.8,568.9l71.9-233H78.3l71.9,233c2.8,9.1,11.2,15.2,20.6,15.2h7.6c16.6-24.3,45.5-42.8,78.3-42.8
		s61.7,18.6,78.3,42.8H467c16.6-24.3,45.5-42.8,78.3-42.8c32.8,0,61.7,18.6,78.3,42.8h5.6C638.6,584.1,647,578,649.8,568.9z"/>
	<path class="st0" d="M735,292.7l6.4-20c2-6.5,0.8-14-3.3-19.5c-4.1-5.5-10.5-9.1-17.4-9.1h-28.2c1.6-8.1,2.4-16,2.4-24.6
		C695,147.3,636.4,89,564.1,89c-5.1,0-10.1,0.5-15,1c-2.6-50.2-44.2-90-95-90c-19,0-36.7,5.6-51.6,15.2
		c-14.9-9.6-32.6-15.2-51.6-15.2c-50.9,0-92.4,39.9-95,90.1c-4.9-0.6-9.9-0.9-15-0.9c-72.3,0-130.9,58-130.9,130.3
		c0,8.6,0.9,16.5,2.4,24.6H79.3c-6.9,0-13.3,3.9-17.4,9.4c-4.1,5.5-5.3,12.3-3.3,18.9l6.4,20.3H735z"/>
	<path class="st0" d="M548.4,685.3c26.1-1.6,46.8-23.2,46.8-49.7c0-27.6-22.3-49.9-49.9-49.9c-27.6,0-49.9,22.3-49.9,49.9
		c0,16.3,7.9,30.8,20,39.9c-18.5-4.6-38.1-8.1-58.3-10.4c-18-2-36.6-3.1-55.5-3.1c-19.2,0-38.2,1.1-56.5,3.2
		c-20.4,2.3-40.1,5.9-58.7,10.6c12.3-9.1,20.3-23.7,20.3-40.1c0-27.6-22.3-49.9-49.9-49.9c-27.6,0-49.9,22.3-49.9,49.9
		c0,26.7,21,48.5,47.4,49.8c-11.3,4-22,8.4-32,13.3c-7.5,3.7-14.5,6.9-21,11c-39.8,24.6-61.4,58-61.4,90.4h523.5
		c0-32.4-21.9-66-62-90.7c-6.4-3.9-13.2-7.3-20.4-10.9C570.6,693.5,559.8,689.3,548.4,685.3z"/>
</g>
</svg>
