<?xml version="1.0" encoding="utf-8"?>
<!-- Generator: Adobe Illustrator 23.0.1, SVG Export Plug-In . SVG Version: 6.00 Build 0)  -->
<svg version="1.1" id="Capa_1" xmlns="http://www.w3.org/2000/svg" xmlns:xlink="http://www.w3.org/1999/xlink" x="0px" y="0px"
	 viewBox="0 0 800 800" style="enable-background:new 0 0 800 800;" xml:space="preserve">
<g>
	<path d="M490.2,167.5c-50.2-29-131.5-29-181.6,0c-49.9,29-49.6,76,0.7,105.1s131.5,29,181.4,0C540.6,243.7,540.5,196.5,490.2,167.5
		z"/>
	<path d="M225.2,137.3l35.2,20.2c3.1,1.8,8.2,1.8,11.3,0l20.1-11.6c3.1-1.8,3.1-4.7,0-6.5L256.6,119c-3.1-1.8-8.2-1.8-11.3,0
		l-20.1,11.7C222.1,132.6,222.1,135.5,225.2,137.3z"/>
	<path d="M508.5,300.8l35.2,20.4c3.1,1.8,8.2,1.8,11.3,0l20.1-11.7c3.1-1.8,3.1-4.7,0-6.5l-35.2-20.4c-3.1-1.8-8.2-1.8-11.3,0
		l-20.1,11.7C505.4,296,505.4,299,508.5,300.8z"/>
	<polygon points="486.6,617.1 495.7,622.5 779.8,457.4 744.4,437 495.4,581.7 54.8,326.9 19.5,347.3 460.2,602.1 	"/>
	<polygon points="494.9,669.8 54.8,415.5 19.5,436 459.7,690.2 486,705.4 495.3,710.8 780.4,545.2 744.9,524.6 	"/>
	<path d="M24.4,174l456.5,263.5c6.4,3.6,16.5,3.6,22.7,0l272.1-158.1c6.4-3.8,6.4-9.6,0-13.2L319.2,2.7c-6.2-3.6-16.5-3.6-22.7,0
		L24.4,160.8C18.2,164.4,18.2,170.2,24.4,174z M140.7,142.8c-2.6-1.5-5.2-2.8-8.2-3.9l126.8-73.7c2,1.6,4.1,3.3,6.7,4.7
		c23.2,13.4,60.7,13.4,83.9,0c2.6-1.5,4.9-3.1,6.9-4.9l308.5,178.2c-4.1,1.5-8,3.1-11.4,5.2c-23,13.4-23,35.1,0.3,48.6
		c3.6,2.1,7.5,3.8,11.7,5.2l-128.1,74.4c-2.4-2.4-5.5-4.7-9.1-6.7c-23.2-13.4-60.7-13.4-83.9,0c-1.8,1-3.3,2.1-4.7,3.3L132.6,195.5
		c2.9-1.1,5.7-2.4,8.5-4.1C164.1,178.1,164.1,156.4,140.7,142.8z"/>
	<polygon points="494.9,492.3 54.8,238 19.5,258.5 459.7,512.9 486,528 495.3,533.4 780.4,367.8 744.9,347.3 	"/>
	<polygon points="495.4,759 54.8,504.2 19.5,524.6 460.3,779.4 486.6,794.6 495.7,800 779.8,634.7 744.4,614.3 	"/>
</g>
</svg>
