<svg id="Capa_1" data-name="Capa 1" xmlns="http://www.w3.org/2000/svg" viewBox="0 0 500 500"><defs><style>.cls-1{fill:#fff;}</style></defs><title>moneyWhite</title><path class="cls-1" d="M459.27,254.67c-33-18.15-86.4-18.15-119.31,0s-32.59,47.52.42,65.67,86.41,18.15,119.21,0S492.29,272.82,459.27,254.67Z" transform="translate(-150 -150)"/><path class="cls-1" d="M285.18,235.81l23.15,12.64a8.57,8.57,0,0,0,7.4,0l13.18-7.24c2-1.12,2-3,0-4.08l-23.15-12.74a8.5,8.5,0,0,0-7.4,0l-13.18,7.34C283.14,232.85,283.14,234.68,285.18,235.81Z" transform="translate(-150 -150)"/><path class="cls-1" d="M471.27,338l23.16,12.74a8.48,8.48,0,0,0,7.39,0L515,343.38c2-1.12,2-2.95,0-4.08l-23.15-12.74a8.57,8.57,0,0,0-7.4,0l-13.19,7.34C469.24,335,469.24,336.86,471.27,338Z" transform="translate(-150 -150)"/><polygon class="cls-1" points="306.91 385.69 312.91 389.06 499.55 285.87 476.28 273.12 312.7 363.57 23.16 204.29 0 217.04 289.54 376.31 306.91 385.69"/><polygon class="cls-1" points="312.38 418.63 23.16 259.66 0 272.51 289.22 431.38 306.48 440.86 312.59 444.22 499.97 340.73 476.6 327.88 312.38 418.63"/><path class="cls-1" d="M153.22,258.75,453.16,423.43c4.18,2.24,10.82,2.24,14.9,0l178.8-98.81c4.19-2.35,4.19-6,0-8.26L346.92,151.68a17.36,17.36,0,0,0-14.9,0l-178.8,98.81C149.14,252.73,149.14,256.4,153.22,258.75Zm76.43-19.48a43,43,0,0,0-5.36-2.44l83.29-46.09a28.29,28.29,0,0,0,4.4,2.95c15.22,8.36,39.88,8.36,55.1,0a23.67,23.67,0,0,0,4.5-3.06L574.29,302a40.83,40.83,0,0,0-7.5,3.27c-15.12,8.36-15.12,21.92.21,30.38a43.06,43.06,0,0,0,7.72,3.27l-84.15,46.49a26.48,26.48,0,0,0-6-4.18c-15.23-8.36-39.88-8.36-55.1,0a22.6,22.6,0,0,0-3.11,2l-202.07-111a39.33,39.33,0,0,0,5.57-2.55C245,261.3,245,247.74,229.65,239.27Z" transform="translate(-150 -150)"/><polygon class="cls-1" points="312.38 307.69 23.16 148.72 0 161.57 289.22 320.54 306.48 330.02 312.59 333.38 499.97 229.89 476.6 217.04 312.38 307.69"/><polygon class="cls-1" points="312.7 474.41 23.16 315.13 0 327.88 289.65 487.15 306.91 496.63 312.91 500 499.55 396.71 476.28 383.96 312.7 474.41"/></svg>