<svg id="Layer_1" data-name="Layer 1" xmlns="http://www.w3.org/2000/svg" viewBox="0 0 1200 964.92"><defs><style>.cls-1{fill:#fff;}</style></defs><title>platoonWhite</title><path class="cls-1" d="M350.6,237.79c2,.07,4,.2,6,.2h1188c2,0,4-.13,6-.2v784.67H350.6ZM929.38,630.13l-554.63-359V989.1Zm42.52,0,554.63,359V271.16ZM402.61,261.46c2.53,1.74,4.09,2.86,5.69,3.9Q676.67,439,945,612.82c4.3,2.79,7,2.82,11.36,0q112.85-73.37,225.93-146.38l311.91-201.88c1.25-.81,2.44-1.7,4.44-3.11Zm-.13,737.23H1498.67c-2.62-1.75-4.24-2.85-5.89-3.91l-365.7-236.69Q1041,702.35,954.9,646.56c-3.07-2-5.26-2.24-8.4-.09-8.74,6-17.74,11.59-26.64,17.34l-446.64,289C450,967.87,426.82,982.92,402.48,998.69Z" transform="translate(-350.6 -57.54)"/><path class="cls-1" d="M802.44,182.65c-35.05-.09-63.82-28.57-63.61-63,.2-34.19,29-62.21,63.94-62.13,35.06.08,63.84,28.56,63.61,63C866.16,154.68,837.3,182.74,802.44,182.65Z" transform="translate(-350.6 -57.54)"/><path class="cls-1" d="M950.38,57.54c35.09-.11,64,28.17,64,62.57,0,34.2-28.7,62.42-63.56,62.54-35.05.11-64-28.21-64-62.6C886.84,85.83,915.5,57.65,950.38,57.54Z" transform="translate(-350.6 -57.54)"/><path class="cls-1" d="M1098.63,182.65c-35.05,0-63.91-28.4-63.8-62.79.11-34.21,28.85-62.31,63.75-62.32,35.07,0,63.93,28.37,63.8,62.76C1162.26,154.5,1133.49,182.64,1098.63,182.65Z" transform="translate(-350.6 -57.54)"/></svg>