<svg id="Layer_1" data-name="Layer 1" xmlns="http://www.w3.org/2000/svg" viewBox="0 0 1260.8 1280.3"><defs><style>.cls-1{fill:#fff;}</style></defs><title>wheatWhite</title><path class="cls-1" d="M649.5,3.2C641.7,12.4,624,55.1,614,88.4c-13.1,44-20,84.6-21.9,128.3-2.6,59.6,6.9,107.8,27,136.9,6.7,9.7,14.4,16.5,23.8,21.2,6.6,3.3,8.4,3.7,15,3.7s8.3-.4,12.3-2.7c8.5-5.1,14.9-14.4,18.5-26.9,1.5-5.4,1.8-10.1,1.7-30.4-.2-49.7-5.1-62.1-40.9-103-14.4-16.5-24.6-29.8-28.2-36.8-4.6-9.2-4.3-31.3.8-62.2,2.9-18.1,7.2-33.6,16.1-58.5C649.8,25.6,654,12.3,654.7,5.7,655.4-1.1,653.8-1.9,649.5,3.2Z" transform="translate(-0.2 0.1)"/><path class="cls-1" d="M439.1,57.8c-3.8,14-4.9,79.3-1.8,103.7,2.2,17.2,2.1,39.8-.3,67.5-2.5,28.8-2.5,47.1,0,68,2.5,21.1,2.5,41.9,0,71-2.5,28.6-2.5,47.1,0,68s2.5,41.4,0,69-2.5,47.8,0,70,2.5,42.8,0,69c-2.6,26.7-2.6,47.9,0,69.5s2.5,39,0,67.5c-2.4,26.8-2.5,47-.5,65.2,1,9,1.4,23.1,1.4,43.8-.1,39.6,1.3,59.9,9.2,133.5,4,37,4.5,39.7,11,60.5,14.9,47.1,43.5,107,66.7,139.3,10.9,15.3,34.3,38,46.5,45.2,5.6,3.2,22.8,7.8,29.8,7.8,9.6.1,16.3-5.3,20.6-16.3,2.5-6.6,2.5-26.9-.1-37-5.8-22.8-16.6-41.8-35.3-61.9-17.3-18.6-39.7-35-55.7-40.8a104.47,104.47,0,0,0-12.2-2.8c-10.4-1.7-15.5-4.3-23-12-30.4-31-45.7-89.1-50.9-193l-.5-11,5.4,21c8.4,33,16.4,55.7,30.3,86,26.3,57.7,63.9,107.3,91.8,121.3,11.2,5.6,16,6.7,28.5,6.7,14.4,0,18.2-1.5,21.4-8.4,1.9-4.1,2.1-6.3,2-20.1-.1-13.4-.4-16.9-2.7-25.5-4.8-18.1-15.9-37.8-32.7-57.7-13.3-16-26.4-25.9-47.5-36.2-11.6-5.6-21-9-28.5-10.2-3.9-.6-5.5-1.7-12-8.3a125.57,125.57,0,0,1-13.5-16.6c-12.3-18.7-28-53.1-32.9-72.2-3.3-12.7-7.7-61.3-9.2-100.4-.7-19.3,0-24.9,2.2-16.9.7,2.5,4.4,16.4,8.3,31,11.8,44.6,20.2,67.7,35.2,98,14.6,29.4,30.5,52.8,49.1,72.5,23.1,24.4,42.7,34.5,64.5,33.2,15.6-.9,19.5-5.3,20.1-22.5.8-19.1-3.3-35.8-13.4-55.1-8.1-15.6-17.4-28.1-30.9-41.6-19.2-19.2-37.1-30.4-58.4-36.5-17.8-5.1-19.6-6.7-34.1-30-29.5-47.5-37.4-74.2-41-137.5-1.2-21.5-2.1-55.3-1.5-54,.2.5,3,9.5,6,20,26.7,91.2,42.3,126.6,73.4,166.8,21.4,27.6,38.3,42.3,56.1,48.7,5.5,2,8.5,2.4,19,2.4,10.7.1,13.1-.2,16.5-2,6.8-3.5,8-7.2,8-24.9-.1-17.1-1.7-24.9-8.4-40.5-8.5-19.8-19.6-35.6-36.6-52.5-17.9-17.8-36.4-29-58.2-35.3-17.7-5.1-19.9-7.2-39.1-36.6-15.1-22.9-20.9-35.7-25.7-56.1-6.4-27.5-9.6-59.2-10.9-110.5l-.6-19.5,2.1,7c1.1,3.8,5,17.6,8.6,30.5,12.6,45.1,22.3,72,36.3,100.5,19.3,39.1,51.3,78.6,75,92.5,11.2,6.6,17.5,8.3,34,8.7,17.9.5,18.7.2,21.7-8.7,5.4-15.9,1.5-44.7-8.9-65.5-19.3-38.3-57.2-70.5-94.8-80.7a48.71,48.71,0,0,1-11.4-4.6c-8.3-5.6-28.7-33.3-38.4-52-10.5-20.2-17.5-51-21.1-92.7-1.1-12.3-3.2-60-3-69l.1-5,1.9,7c22.2,79.2,28.7,97.9,45.6,131.5,13.1,26.1,25.9,45.2,43.6,65.2,16.3,18.3,30.3,29.8,44.7,36.7,19.5,9.5,34.4,7.1,41.2-6.6,2.1-4.4,2.3-6.1,2.3-19.3,0-12.9-.3-15.6-2.9-24.5-3.7-13.3-13-31.9-21.3-43-8.7-11.6-25.2-28.6-36.7-38-17.8-14.4-33.3-22.6-46.2-24.4-3.9-.6-7.9-1.9-9.7-3.2-5.1-3.5-12.2-12.3-22.8-28.2C455.3,353,446.7,317,444.4,231.1c-.4-16.6-.3-24.3.4-23.6,1.1,1.1,3.5,9.3,11.7,40,18,67.1,39.4,113,71.6,153.7,21.9,27.5,46.5,45.6,66.5,48.9,6,1,7.9.9,12.7-.5,12.2-3.5,16.9-11.9,16.8-29.5-.1-12.8-1.3-19.6-5.7-33.1-6.7-20.3-18.3-37.8-38.4-58.1-23.8-24.1-45.5-37.8-64.3-40.9-7.6-1.2-12.1-4.3-20.4-14-15-17.5-28.3-41-35.1-62.2C450,180.5,445.6,148.7,444,96c-.9-31.8-1.6-40.6-3.1-41.6C440.5,54.2,439.6,55.7,439.1,57.8Z" transform="translate(-0.2 0.1)"/><path class="cls-1" d="M723,62.9c-1.6,3-1.3,4.9,3.6,27,5.8,26.2,7.3,37.3,8.1,59.6,1.2,34.7-2.8,66.8-14.4,115.8C714,291.9,713.9,291,722,291c7.4,0,10.1-3,15.7-17.9,7-18.5,15.8-74.1,17-106.1.7-22.4-.4-30-13.8-93-1.2-5.8-2.6-11.1-3.2-11.8s-3.4-1.2-7.3-1.2C725.2,61,723.9,61.3,723,62.9Z" transform="translate(-0.2 0.1)"/><path class="cls-1" d="M528.1,72.8c-1.9,1.4-3.2,6.6-8.6,33.6-9.8,48.7-10,49.9-10,75.6,0,16.4.5,25.9,1.8,34.9,3.1,21.1,6.6,37.4,8.5,40.1,2.4,3.1,6.9,4.3,12.9,3.3s6.2-1.8,3.4-19.2c-5.6-35.2-7.8-68.6-6.1-93.4,1.4-21.2,3.6-32.6,10-53,2.7-8.7,5-16.7,5-17.8a7,7,0,0,0-2-3.9C540.3,70.3,531.2,70.2,528.1,72.8Z" transform="translate(-0.2 0.1)"/><path class="cls-1" d="M815.1,163.5c-.6,2.5-2.1,14.3-3.2,26.3-5.1,54.8-9.4,68.7-39.9,129.7l-17.5,35-10.6,1.6c-13.5,2.1-19.4,3.9-29.9,8.9-29.5,14.3-58.2,42.2-72.3,70.5-7.7,15.3-8.9,20.6-9.5,39.7-.7,26.1.8,32.1,9.1,36.1s29.1,1.6,42-5c25.9-13,55.9-51.7,88.3-113.8,22.4-43.1,36-88.7,42.9-144.5,4.6-37.2,6.1-89,2.5-89C816.6,159,815.7,161,815.1,163.5Z" transform="translate(-0.2 0.1)"/><path class="cls-1" d="M1149.6,279.8c-1.2,2-3.4,23.4-5.1,48.7-4.8,75.2-22.5,123.7-50,137a52.27,52.27,0,0,1-11.9,3.5c-12.6,2-27.6,9.5-43.1,21.5-17.6,13.7-31.4,35.8-36,57.6-3.1,14.5-1.6,26.1,4.2,32.9,5.4,6.3,10.4,8.4,19.4,8.5,6.9,0,8.3-.4,16-4.2,11.5-5.8,20.4-12.7,33.4-25.8,13.2-13.3,20.7-23.6,27.9-38.2,15.3-30.9,34.8-83.7,39.5-107.1,4.5-21.8,7.1-55.2,7.8-97.2C1152.2,285.8,1151.6,276.5,1149.6,279.8Z" transform="translate(-0.2 0.1)"/><path class="cls-1" d="M816.7,298.6c-1.5,2.6-2.9,11-4.7,29.7-3.1,32.5-6.5,51.1-13.5,72.6-9.2,28.4-27.8,64.6-41.8,81.4-4.6,5.5-9.2,8.2-16,9-15.8,2.1-43.2,19.3-64.2,40.2-22.5,22.4-38.3,47.5-44.1,70.2-4.7,18-1.9,41.3,5.4,46.1,2.2,1.4,5.1,1.7,17.2,1.7,13.1-.1,15.2-.3,21.8-2.7,10.6-3.8,17.3-8.2,27.5-17.8,28.6-27,65.6-87.2,84.8-138,15.3-40.4,22.8-74.5,28-128,1.5-16,2.4-61.3,1.2-63.5C817.7,298.6,817,298.1,816.7,298.6Z" transform="translate(-0.2 0.1)"/><path class="cls-1" d="M109.4,304.5c-1.1,6,.3,67.1,2,87.2,3.2,37.2,6,51,15.8,79.8,12.1,35.6,28.1,72.3,38.2,87.5,13.6,20.4,41.1,44.9,57,50.9,11.7,4.4,25.1,1.6,31.2-6.5,9.7-12.7,6.1-38.9-9.1-64.8-5.1-8.8-20.6-24.7-30.5-31.3-13.7-9.2-26.4-14.8-36.6-16.2-9.4-1.4-14.9-4.5-23.9-13.5-11.2-11.3-18.3-25.5-25.4-50.7s-9.9-45.8-12.6-87.8C113.4,306.9,111.3,294.7,109.4,304.5Z" transform="translate(-0.2 0.1)"/><path class="cls-1" d="M1061.8,333.2c-12.8,6.9-19.6,15.7-31.9,41.3-15.4,32-36.9,96.7-38.6,116.1-.5,5.6-.3,6.3,1.8,7.8a12.4,12.4,0,0,0,6,1.6c3.5,0,3.8-.3,5.3-4.3a118.59,118.59,0,0,0,3.1-12.7c9.1-47.4,23.9-86,46.4-121.3,11.6-18.1,16.7-27.7,15.8-30.1C1068.9,329.5,1068.4,329.5,1061.8,333.2Z" transform="translate(-0.2 0.1)"/><path class="cls-1" d="M183,353.8l-2.2,1.8,3,6c1.6,3.2,8.9,14.2,16.2,24.4s15.4,22.2,18.1,26.8c15.6,26.3,26.4,54.2,34.4,88.6,5.2,22.4,5,22.2,11,21,7.8-1.4,8.1-4.9,2.6-26.7-13.6-53.1-44.7-123-61.2-137C197.8,352.5,187.4,350.2,183,353.8Z" transform="translate(-0.2 0.1)"/><path class="cls-1" d="M1206.3,410.9c-3.4,5.5-6.4,15.3-7.3,23.9-2.4,22.6-16.9,52.1-44.4,90.5-6,8.3-11.3,16.2-11.9,17.5-1.4,3.1,1,5.3,8.2,7.6,6.8,2.1,8.9,1,12.4-6.6,1.3-2.9,8.5-15.9,15.9-28.8,15-26.1,20.3-36.3,24.9-47.7,6.9-17.3,9.9-30.2,10.2-43.5.2-8.3.1-8.8-2.7-11.7C1208.1,408.5,1207.9,408.4,1206.3,410.9Z" transform="translate(-0.2 0.1)"/><path class="cls-1" d="M953,422.6a81.59,81.59,0,0,0-6,10.7c-8.7,19.2-20.9,93.2-21,126.7,0,32.7,9.9,77.9,22.6,103.2,8.3,16.5,16.4,22.3,30,21.6,14.2-.7,20.5-8.6,22.5-28.3,1.6-15.2.6-50.9-1.6-59.5-3.8-14.6-15.2-34-32-54-12.1-14.5-16.4-22.8-17.2-33.2-.9-11.8,2.3-46.8,6.8-75.1C959.9,416.9,958.9,413.9,953,422.6Z" transform="translate(-0.2 0.1)"/><path class="cls-1" d="M51.5,430.9C46.1,432,45,438,47,454c3,22.7,11.4,43,33.7,81.5,6.1,10.5,12.9,22.6,15.1,27,5.5,10.9,6.8,12.1,12.8,10.6,6.6-1.7,10.4-3.8,10.4-5.9,0-1-4.4-8.1-9.8-15.7C90.1,524.3,75.8,496.2,67,468.6c-3.8-11.9-6-22.5-6-28.9C61,431.3,58.8,429.3,51.5,430.9Z" transform="translate(-0.2 0.1)"/><path class="cls-1" d="M814.9,439.1c-.6,1.3-1.5,9.6-2,18.8-1.2,23.1-3.2,36.1-9,59.1A324.54,324.54,0,0,1,767,605.1c-10.3,17.3-13.2,20-24.6,23.4-25,7.5-40.8,16.4-61,34.3-33.4,29.7-50.8,63.6-50.8,99.2,0,8.9.3,11.2,2.2,15.2,3.3,6.7,6.3,7.9,21.4,7.9,23.9,0,34.4-4,50-19,27.4-26.2,59.6-76.5,80.7-125.8,14-32.8,22.5-68.2,30-125.3,4.5-33.8,6.4-67.2,4.2-74.9C818.2,436.8,816.4,436.4,814.9,439.1Z" transform="translate(-0.2 0.1)"/><path class="cls-1" d="M302.4,441.3c-.3.9.5,9.5,2,18.9,3.1,21,4.3,31.4,5.6,48.2,2.4,31.6,1,36.2-18.1,58.9-13.3,15.8-25.2,35.3-29.3,48.2-4.7,14.9-5,61.5-.5,76.5a22.77,22.77,0,0,0,14.5,14.5c4.9,1.5,6.6,1.6,11.7.7a38.44,38.44,0,0,0,10.2-3.7c18.7-10.9,37.9-78.4,36.2-127.5-1.4-39.6-13.3-105.9-22.3-123.6C308.2,443.9,303.4,438.7,302.4,441.3Z" transform="translate(-0.2 0.1)"/><path class="cls-1" d="M1254.6,485.4c-1.9,1.9-8.3,9.9-14.2,17.8-16.6,21.9-47.3,51.8-62.1,60.4-7.6,4.5-13.3,5.4-40.3,6.4-27.2.9-39.9,2.7-52.3,7.4-25.9,9.7-52.8,30.8-61.2,47.9s-3.2,29.5,14.6,34.2c7.8,2.1,16.9,1.8,28.9-.9,23.1-5.2,46-16,68.5-32,33-23.6,84.1-76.8,106.7-111.1,7.3-11.2,17.8-30.1,17.8-32.1C1261,481,1258.2,481.9,1254.6,485.4Z" transform="translate(-0.2 0.1)"/><path class="cls-1" d="M911.3,505.4c-10.2,8.6-24.9,69.9-31.4,131.6-6.6,61.3,11.3,132.7,36.9,147.8,4.1,2.3,5.8,2.7,12.8,2.7s8.5-.3,12.1-2.7c10.6-7,15.4-22.1,15.4-48.2,0-31.6-6.5-48-35.7-91.1-15.6-22.9-19.3-32.8-19.4-51.1,0-10.8,1.4-21.3,8.1-60.3,2.7-16.1,4.8-29.8,4.7-30.3S913,504,911.3,505.4Z" transform="translate(-0.2 0.1)"/><path class="cls-1" d="M.5,505c-1.1,1.7.7,6.4,6.9,18.5,9,17.2,20.4,35.4,24.9,39.5,2.2,1.9,18.4,18,36.1,35.7,41.5,41.5,58.2,54.7,87.1,68.8,22.3,10.8,41.1,15.9,56.9,15.3,8.6-.3,11-.8,15.8-3.1,10.7-5.2,14.1-12.4,11.4-23.5-3.3-13.4-13.1-25.5-30.6-37.9-12.1-8.7-31.3-18.3-41.8-21.2-9.7-2.7-22.1-3.9-49.2-5.1-25.5-1-29.7-1.9-38.6-8.1C62.1,571.8,35,544.7,19.2,523.8,10.5,512.2,3.1,504,1.5,504,1.3,504,.9,504.4.5,505Z" transform="translate(-0.2 0.1)"/><path class="cls-1" d="M346,526.5c0,.9,2.2,14.5,5,30.3,8.7,49.9,9.7,63.2,6.1,77.4-2.6,10.2-6.3,17.2-18.8,35.7-28.4,42.1-34.5,57.9-34.4,90.1.1,33.3,9.4,50.4,27.6,50.4,19.5,0,35.1-23.5,44.9-67.4,8.9-40.2,8-78.8-3.5-140.1-8.2-44.3-16.9-71-24.8-76.5C346.2,525,346,525.1,346,526.5Z" transform="translate(-0.2 0.1)"/><path class="cls-1" d="M1217.1,562.5c-2.8,3.1-11.5,15.2-19.3,26.8-27.1,40.6-41.6,57.8-57.3,68.2-17.5,11.6-24.6,13.2-62.6,14.4-32.9.9-35.8,1.5-52.7,10-40.9,20.5-65.6,56.7-49,71.7,7.9,7.2,22.2,7.6,47.6,1.3,50.7-12.5,99.8-47.1,141.8-99.9,29-36.4,62.3-92.5,57.7-97.1C1222.6,557.2,1220.6,558.7,1217.1,562.5Z" transform="translate(-0.2 0.1)"/><path class="cls-1" d="M814.1,581a68.69,68.69,0,0,0-1.1,11.8c0,20.4-7.6,62.4-16.1,89-8.1,25-33.5,71.7-43.6,80.1-2.3,1.9-6.4,3.7-11.7,5.1-15.5,4.1-25.6,8.6-38.6,17.3-32.1,21.3-60,56.8-69.6,88.2-4.7,15.5-3.7,40.9,2,48l2.4,3,15.9-.1c25.5-.1,35.3-3.6,50-17.7,21.2-20.4,41.8-51.6,67.7-102.7,19.7-38.8,26.1-55.6,33.1-87.5,11.1-50,18.8-123.6,14.4-136.4C817.3,574.5,815.3,575.2,814.1,581Z" transform="translate(-0.2 0.1)"/><path class="cls-1" d="M37,582c0,10,33.2,63.9,60.4,98,12.9,16.2,40,43.1,54.8,54.5,33.9,26.1,70.4,42.4,104.9,46.7,16.4,2,27.4-1.4,31.4-9.8,2.6-5.4,1.6-14.2-2.3-22.1-8.8-17.4-27.5-33.7-52.3-45.8-17-8.2-18.9-8.5-53.4-9.5-32.7-.9-35.4-1.4-48-7.4-22.3-10.5-35.7-24.8-67.3-71.9C47.8,588.9,40.9,580,38.4,580,37.6,580,37,580.9,37,582Z" transform="translate(-0.2 0.1)"/><path class="cls-1" d="M855.5,625.7c-8.1,19.4-16.6,52.1-20.4,78.8-12,83.3,5,163.9,38.1,180.4,13.8,6.9,24.4,2.2,29.8-13.2,4.9-13.9,6.3-35.7,3.5-52.1-4.2-23.9-18.3-53.1-37.3-77.4-9-11.3-11.7-15.8-14.1-22.9-4.3-12.7-3.8-26.2,2.5-63.8,4.4-26.6,5.3-38.5,3.1-38.5C859.7,617,857.9,620.1,855.5,625.7Z" transform="translate(-0.2 0.1)"/><path class="cls-1" d="M399.3,647.7c.4,4.9,2.2,18.3,4.1,29.9s4.1,27.1,4.8,34.6c1,11.8,1,14.5-.5,21.9-2,10.2-5.9,18.1-13.8,27.9-18.4,22.8-30.5,45.8-37.5,71.3-3.2,11.4-4.3,31.3-2.5,43.7,3.9,26.1,13.3,37,28.5,32.6C420.9,898.4,440.2,808,424,714.8a401.67,401.67,0,0,0-14.1-54.5C402,637.2,398.2,632.7,399.3,647.7Z" transform="translate(-0.2 0.1)"/><path class="cls-1" d="M1156.5,688.9c-3.7,2.3-9.3,8.2-32.1,33.6-23.5,26.2-36,38.7-41.5,41.3-7.2,3.5-17.7,5.2-51.5,8.2-35.3,3.2-55.9,8.2-71,17.1-12.2,7.2-26.5,23.9-36.3,42.3-4,7.7-4,11.7.1,17.7,5.5,8.1,6.6,8.4,27.8,8.4,25.7-.1,36.4-2.7,60.5-14.7,40.3-20.1,90.8-65,119.2-105.8,11.6-16.7,28.9-46.8,28.1-49C1159.6,687.5,1158.2,687.9,1156.5,688.9Z" transform="translate(-0.2 0.1)"/><path class="cls-1" d="M816.1,710.3c-1.6,4-2.9,13.6-4.6,33.2-3.2,36.1-9.4,62.4-21.7,92.5-7.2,17.8-28.4,56.7-34.1,62.8-3.3,3.5-6.5,4.9-16.6,7.1-35,7.7-78.1,43.3-96.5,79.9-8.4,16.6-13.2,38.2-12.4,54.7.6,11.6,2.6,16.1,8.6,19.4,9.3,5.1,29.3,3.6,43.7-3.3,26.6-12.7,57.5-52.6,89.4-115.6,19.3-38.1,30-69.7,37.7-110.9,5.3-28.7,9.3-72,9.5-101.1C819.2,710.6,818.2,704.7,816.1,710.3Z" transform="translate(-0.2 0.1)"/><path class="cls-1" d="M102.2,715.1c1,10.2,13.3,30.3,33.6,54.9,12.6,15.2,44.5,47,60.7,60.4,32.2,26.7,67.5,45.4,92.3,48.7,4.5.6,15.2.9,23.9.7,18.2-.3,19.4-.8,24.4-8.6,4-6.3,3.8-9.9-1.3-19.1-22.5-41.3-44.6-52.9-110.3-58.1-28.3-2.2-43.1-5-49.7-9.2-5.5-3.5-17.7-15.9-42.2-43.3C102.4,706.8,101.3,705.9,102.2,715.1Z" transform="translate(-0.2 0.1)"/><path class="cls-1" d="M1118.8,767.9c-2.3,2.6-8.5,11.1-13.7,18.7-21.9,32.2-35.7,48.1-55.8,64.1-22.5,17.9-32.1,21.1-58.3,19.2-24.2-1.7-39.5,1.3-60.8,12-20.5,10.3-38.6,25-46,37.4a72.13,72.13,0,0,0-8.7,24.8c-.5,5-.3,6,1.7,8.3,3.1,3.6,15.9,8.7,23.4,9.3,11,1,34.9-4.1,50.6-10.6,22.7-9.5,38.7-22.3,91.8-73,27.6-26.4,35-33,35-31.4s-21.3,38.4-28.5,49.5c-3.7,5.6-10,14.6-13.9,19.8-8.4,11.3-32.2,35.5-42.1,42.8-10.2,7.6-15.1,8.8-44.8,11.1-47.5,3.8-66.2,8.9-89.6,24.5-21,14-29.3,26.7-30.8,47.2-.7,10,.2,11.8,7.3,15.1,8.6,3.9,20.8,5,34.5,3.1,14.5-2.1,23.7-5.2,42.4-14.3,39.3-19.3,78.3-53.6,116-102,23.8-30.5,42.2-62.2,60.9-104.8a309.42,309.42,0,0,1,14.5-28.1c9.7-16.2,15-26.7,18.5-36.4C1126.8,761.9,1125.8,760.1,1118.8,767.9Z" transform="translate(-0.2 0.1)"/><path class="cls-1" d="M821.1,781.2c-.1,1.5,1.1,20.4,2.5,42,1.5,22.5,2.7,49.3,2.8,62.8.1,21.9-.2,24.9-3.2,44-5.6,35.5-5.5,30.5-1.2,50.9,2,10,4,18.4,4.3,18.8,1,.9,10.2-2.5,16.6-6.2,10.1-5.9,16.3-14.9,19-27.5,1.9-8.6,2.6-34.3,1.2-45.6-2-16.5-5.4-27.4-14.1-44.9-11.5-23.4-17.9-44.1-23.5-76.5-1.5-8.5-3.1-16.6-3.5-18l-.8-2.5Z" transform="translate(-0.2 0.1)"/><path class="cls-1" d="M136.4,789.4c1.4,7.5,10.9,27.7,20.1,42.5a256.65,256.65,0,0,1,18,35.7c28.1,65.8,77.1,130.9,129.8,172.4,20.4,16.1,47.6,31.3,67.2,37.8,23,7.5,50,6.7,59.1-1.9,2-1.9,2.4-3.2,2.4-8.3a63.28,63.28,0,0,0-5.7-25.3c-3.5-7.2-14.2-18.2-24.3-25-24.1-16.2-46.1-22-94.5-25.3-27.6-1.9-31-2.9-44.6-13.8-18.1-14.5-35.8-34.4-51.2-57.9-12.8-19.4-30.8-51.3-28.9-51.3.9,0,12.6,10.9,46.4,43.1,52.5,50.1,70.8,62,107.3,69.6,17,3.6,24.3,3.4,34.7-.6,12.2-4.7,13.3-5.8,13.2-12.5-.2-7.2-3.6-18.1-8-25.6-11.3-19.3-39.7-38.9-69.4-47.8-8.1-2.5-9.7-2.6-35.5-2.7-29.9-.2-31.2-.4-42.8-6.9-8.5-4.7-23.2-16.1-33.6-26.1-11.4-10.9-22.4-24.6-37.1-46C145,793,139.5,786,137.3,786,136.1,786,135.9,786.7,136.4,789.4Z" transform="translate(-0.2 0.1)"/><path class="cls-1" d="M814.1,852.2c-.5,2.9-1.2,12-1.5,20.3-2.1,52-12.1,82.9-48,148.7-12.1,22.2-9.3,19.8-25.3,21.8-22.5,2.9-35.2,9.9-54.9,30.2-23,23.8-40.7,48.2-47.8,66.1-4.5,11.4-7.6,33.1-6.1,43.8,1.3,9.1,9.5,17,19.4,18.5,5,.8,16.8-1.3,25.2-4.5,26.8-10.2,54.3-41.8,87.3-100.3,29.2-51.9,45.2-101.9,52.6-163.8,3.1-26.5,5.3-79.5,3.4-84.4C817.1,845.3,815.1,847,814.1,852.2Z" transform="translate(-0.2 0.1)"/><path class="cls-1" d="M426,875.5c-9.9,13.4-21.2,33.7-23.6,42.1-2.1,7.8-3.1,44.2-1.5,57.6,2,17.5,6.5,27.4,14.2,31.3,3,1.6,24.5,5.2,25.4,4.3.3-.3-.5-9.9-1.9-21.4-3.9-32.5-4.7-46.1-4.5-70.4.5-39.3.3-43.8-2.5-47.5C430.4,869.8,429.9,870.2,426,875.5Z" transform="translate(-0.2 0.1)"/><path class="cls-1" d="M815.7,987.4c-1,2.4-2.6,16.2-4.2,34.6-4.1,47-12.1,72-40.4,125.9C755,1178.5,752,1182,742,1182c-5.8,0-17,4-30.8,10.9-27.8,13.9-43.1,27.9-62.5,57.1-7.9,12-11.9,20.3-11.5,24,.6,5.3,1.9,5.5,54.8,5.8l48.5.3,3.7-8.3c2-4.6,11.1-25,20.3-45.3,38-84,43.6-100.9,49.4-147.5,4.4-35.2,6.9-84.1,4.7-90.8C817.8,985.7,816.5,985.3,815.7,987.4Z" transform="translate(-0.2 0.1)"/><path class="cls-1" d="M1004.3,997.2c-3.6,3.5-14.8,15.5-24.8,26.8-20.9,23.6-31.2,33.6-38.7,38-10.7,6.2-19.5,7.7-56.8,10-27.5,1.7-43,4.9-58.4,11.9l-6.1,2.8-2.4,12.4c-3.2,16.9-9.4,40.7-13,50.2l-3,7.9,18.7-.4,18.7-.4,8.9-3.8c18.2-8.1,50.2-27.9,68.6-42.6,32.1-25.8,77.2-76.2,92.9-104.1,3.4-6,5.3-14.9,3.1-14.9C1011.4,991,1007.9,993.8,1004.3,997.2Z" transform="translate(-0.2 0.1)"/><path class="cls-1" d="M248,1016.2c.1,16.7,54.4,81.7,97.4,116.5,16.5,13.3,49.3,33.7,66.8,41.5,12,5.3,20.6,6.7,41.4,6.8,16.1,0,17.3-.1,20.4-2.3,19.8-13.3-2.9-50.6-44.4-73.1-15.3-8.3-22.3-9.8-56.6-11.6-51.3-2.7-52.5-3.4-94.8-51.3-17.7-20-24-26.5-28.1-28.7C248.2,1013,248,1013.2,248,1016.2Z" transform="translate(-0.2 0.1)"/><path class="cls-1" d="M977.9,1060.7c-4.3,4.6-8.3,10.1-22.3,30.4-20.5,29.9-42.2,54.7-58.5,66.8-8.9,6.6-13.8,8.5-25.7,10.1-11.2,1.5-38.6,1.4-47.5-.1-4.1-.7-8.6-.9-10-.6s-7.6,3.9-13.8,7.8l-11.4,7.2-9.8,20.1c-10.9,22.5-15.7,34.1-23.5,56.3L750,1274h4.4c13.9,0,39.8-10.9,54.6-22.8,4.7-3.8,17.5-13.2,28.5-20.7,35.1-24.3,46.1-33.2,66.2-53.6,37.2-37.8,73.4-91.4,78.8-116.7C983.4,1056,982.2,1056.1,977.9,1060.7Z" transform="translate(-0.2 0.1)"/><path class="cls-1" d="M278.5,1080.1c-1.5,3.9,9.2,27.1,21.8,47.5,12.2,19.6,31.1,44.1,49.3,63.9,19.8,21.5,36.9,35.7,71.1,59.4,12.2,8.5,25.2,17.8,28.9,20.7s8.4,5.9,10.3,6.5c2.2.7,16.6,1.3,36,1.6l32.3.5-.4-12.8c-.4-12.4-.5-13.2-4-20.5-2.9-5.9-5.4-9.2-11.9-15.3-8.8-8.4-32.5-24.6-46.2-31.6-12.9-6.5-16.1-7-46.2-8-25.6-.9-37.8-2.2-44.9-5-9.1-3.4-31.7-24.3-46.8-43-7.2-9-11.5-14.9-32-44.1C284.3,1083.6,279.4,1078,278.5,1080.1Z" transform="translate(-0.2 0.1)"/></svg>