<svg id="Layer_1" data-name="Layer 1" xmlns="http://www.w3.org/2000/svg" viewBox="0 0 500 500"><defs><style>.cls-1{fill:#fff;}</style></defs><title>workerWhite</title><path class="cls-1" d="M600.07,390.85c.56.27,4.62,2.15,9,4.14,30.9,14,39,18.35,53.72,29.06l2.91,2.11L662,430.78c-3,3.79-3.56,4.73-3.06,5.24a12.65,12.65,0,0,1,.85,1.06c.2.35-56.53,58.51-59.23,60.74-.61.47-1.11.47-3.77-.12-4.56-1-6.32-.35-8.37,3.25-1,1.72-3,7.39-4.47,12.87-.15.66-2.15,1.6-9.33,4.42-19.21,7.51-26.88,9.31-43.39,10.09l-7.57.39-10-7.9c-15.85-12.52-22.92-18.38-26.54-22.06-6.52-6.57-8.62-8.14-20.36-15.14-3.56-2.11-6.42-3.83-6.42-3.87s.45-1.13.95-2.42l.95-2.35,3.16-.2c4.77-.31,5-.78,3.62-10.91-.3-2.5-.3-2.5.9-2.31l5.22.94a63.54,63.54,0,0,0,12,.74c7.18,0,8.28-.07,10.39-.86,4.86-1.76,3.81-4-5.72-12.28a18.86,18.86,0,0,1-3.41-3.48,29.94,29.94,0,0,1,1.45-4.07c3.66-8.88,4.07-15.8,1.21-21.39-2.06-4.07-5.37-7.82-10-11.46-11.78-9-27.93-14.47-39.12-13.14-8.58,1-16.4,5.82-27.39,16.89-2.3,2.35-3.76,3.41-5.62,4.11-5.16,2-5.81,3.44-3.46,7.59l1.36,2.31L405,430.58c-3.86,6.38-4.21,10.6-1.8,20.15,2.35,9.19,2.2,10-2.91,14.82-2.86,2.7-2.91,2.74-7.13,3.64A82.93,82.93,0,0,1,383,470.48a75.58,75.58,0,0,0-18.06,3.17c-3.05.86-6,1.68-6.47,1.8a1.78,1.78,0,0,0-1.15.86,9,9,0,0,1-2.66,2c-1.3.75-5.42,3.76-9.18,6.65-16,12.4-21,22.49-26.23,52.49l-1.3,7.32-3.06,3.63a55.16,55.16,0,0,0-8.78,13.69c-3.66,7.59-3.81,9.7-1.41,15.3a24.54,24.54,0,0,1,1.21,3.09c0,.47-3.21,1.48-4.72,1.48s-2.31-1-2.31-2.81c0-1.26,0-1.26-.8-.39-.95,1-.6,2.11,1.31,4,1.1,1.13,1.4,1.87,1.65,4.38.2,2.07.1,3.12-.3,3.36s-2.81.94-5.52,1.68c-4.66,1.25-4.91,1.37-5.36,2.7-.26.74-2.51,8.17-5,16.47l-4.56,15.09,3.91,3c2.15,1.6,4.86,3.52,6,4.26a10.34,10.34,0,0,1,2.3,1.68,77.52,77.52,0,0,1-1.9,8.61c-2.06,7.94-7.68,31.29-9.73,40.48-.6,2.46-3,13.65-5.27,24.84-5.37,25.65-7,32.46-14.4,61.56-10.13,39.74-12.18,50.38-12.18,64,0,9.93.65,14,3.76,22.53l1.95,5.32-.8,4.26a69.41,69.41,0,0,0-.9,9.74c-.05,5.28,0,5.55,1.4,7.74,1.61,2.63,4.22,4.19,8.83,5.29,4,.93,15.05.89,19.91,0,10.29-2.08,11.89-5.95,7-16.9-2.61-5.79-3.87-12.13-2.76-13.73a16.53,16.53,0,0,1,3.76-2.89c3.56-2.27,5.22-4.07,5.22-5.71,0-.63-1.31-3.25-2.86-5.83l-2.91-4.7.05-4.49c0-3.95.2-4.85,1.4-7.44,2.26-4.65,6-10.13,11.79-17.36,18.16-22.61,20-27.11,28.34-68.76l2.71-13.42,7.12-10c13.7-19.13,19-26.05,26-34,2.51-2.82,4.32-5.28,4.32-5.83,0-1.25,1.1-1.48,1.7-.35.3.51,9.89,26.6,21.32,58,18.66,51.24,21.77,60.12,30.1,86.64,5.11,16.23,9.48,30.51,9.78,31.68,1.55,6.85,5.27,8.37,22.42,9.35l6.07.35,7.47,3.13c21.72,9.15,33.11,9.9,44.29,2.9,4-2.55,6-5.87,4.57-7.91-.85-1.25-4.42-2.58-11.54-4.34-14.59-3.52-16.4-4.89-25.08-18.62-3.31-5.28-6-9.7-6-9.89a17.73,17.73,0,0,1,2.11-2.74c1.6-1.92,2.16-2.93,2.31-4.5.25-2.38-.3-3.36-4.42-7.82-5.46-5.94-6.07-7.74-5.36-16.23.7-9,1.1-30.24.75-39.9-.45-13.69-2.06-23.82-6.47-42-4.22-17.14-18.51-54.8-31.25-82.18l-3.86-8.25,1.05-1.88c1.75-3.21,1.86-4.93.3-7.35a20.42,20.42,0,0,0-3.36-3.95c-2.86-2.55-2.41-2.78,4.41-2.19,16.86,1.4,25.53,3,33,5.86,5.27,2.08,9.93,4.5,9.68,5.09-.1.19-4.51,4-9.88,8.41L456.77,638l.3,1.53c.55,2.62,1.65,3.79,4.46,4.85a17.69,17.69,0,0,0,3.41.94c.45,0,6.62-5.09,13.75-11.31l13-11.3,2.76-.28c4.21-.39,5.87-1.09,7.07-2.89,1-1.56,1.05-1.56,3.21-1.37,2,.24,2.21.16,2.46-.66a7.92,7.92,0,0,0,.35-2.35c0-1.21.35-1.64,2.46-3,2.66-1.76,3.21-2.86,2.6-5.44a3.59,3.59,0,0,1-.1-2,10.07,10.07,0,0,1,3.32-.51l3-.12v-5.63l36.57-34.65C578.81,541.59,592.3,529.07,593,529c.55-.11,2.86-.27,5-.39,7.22-.43,11.08-2.62,13.84-7.9a5,5,0,0,1,3.26-2.81c2.41-.9,3.26-2.31,3.26-5.28,0-1.37.35-1.8,3.81-4.39,4.42-3.24,4.47-3.79.51-5.2a8.33,8.33,0,0,1-2.56-1.29c-.2-.23.3-1,1.1-1.64s12.94-12.52,27-26.29,26-25.46,26.63-26c1.16-.93,1.26-.93,2.66-.27a11.13,11.13,0,0,0,1.71.67,60.06,60.06,0,0,0,4.66-4.31c2.46-2.38,4.77-4.3,5.17-4.3a46.19,46.19,0,0,1,6.27,2.86c10.53,5.43,17.75,10.36,38.27,26.24,8.38,6.45,15.3,11.66,15.4,11.54.4-.31-20.42-19.64-31.6-29.3-6.82-5.9-18.66-15.05-21.87-17-1.06-.63-1.91-1.33-1.91-1.64a13.64,13.64,0,0,1,2.76-3,13.22,13.22,0,0,0,2.76-2.93c0-.9-4.31-5.4-6.37-6.61a36.17,36.17,0,0,0-6-2.5l-4-1.26-3,2.59a17.22,17.22,0,0,1-3.56,2.58c-.36,0-4.77-2.19-9.79-4.85-19.46-10.21-33.15-16-53.11-22.22C603.18,390.92,597.77,389.59,600.07,390.85ZM462,533.3c3.57,1.44,6.88,4.53,11.14,10.4.8,1.1,1.7,1.88,2.21,1.88s5-.63,10.08-1.37l9.23-1.33L499,545.3c8.18,4.66,13.19,6.73,19.11,8,3.36.67,14.7.94,23.08.51,3.31-.16,3.76-.12,3.76.47,0,.39-9.23,9.86-20.57,21.08l-20.56,20.38-3.87-.23c-6.52-.43-12.33.58-22,3.87-3.91,1.33-4.41,1.41-6,1-14.55-4-31.76-9.35-38.48-12.09-4.81-2-11.18-5.4-11.18-6,0-.82,36.81-49.56,37.47-49.56A7.89,7.89,0,0,1,462,533.3Z" transform="translate(-249 -390.38)"/></svg>