<?xml version="1.0" standalone="no"?>
<!DOCTYPE svg PUBLIC "-//W3C//DTD SVG 20010904//EN"
 "http://www.w3.org/TR/2001/REC-SVG-20010904/DTD/svg10.dtd">
<svg version="1.0" xmlns="http://www.w3.org/2000/svg"
 width="1001.000000pt" height="1280.000000pt" viewBox="0 0 1001.000000 1280.000000"
 preserveAspectRatio="xMidYMid meet">
<metadata>
Created by potrace 1.15, written by Peter Selinger 2001-2017
</metadata>
<g transform="translate(0.000000,1280.000000) scale(0.100000,-0.100000)"
fill="#000000" stroke="none">
<path d="M7005 12776 c11 -7 92 -55 180 -106 616 -358 777 -469 1071 -743 l58
-54 -74 -118 c-60 -97 -71 -121 -61 -134 6 -9 14 -21 17 -27 4 -9 -1127 -1496
-1181 -1553 -12 -12 -22 -12 -75 3 -91 26 -126 9 -167 -83 -20 -44 -59 -189
-89 -329 -3 -17 -43 -41 -186 -113 -383 -192 -536 -238 -865 -258 l-151 -10
-199 202 c-316 320 -457 470 -529 564 -130 168 -172 208 -406 387 -71 54 -128
98 -128 99 0 1 9 29 19 62 l19 60 63 5 c95 8 99 20 72 279 -6 64 -6 64 18 59
13 -3 60 -14 104 -24 60 -14 119 -19 240 -19 143 0 165 2 207 22 97 45 76 102
-114 314 -37 42 -68 82 -68 89 0 7 13 54 29 104 73 227 81 404 24 547 -41 104
-107 200 -200 293 -235 231 -557 370 -780 336 -171 -26 -327 -149 -546 -432
-46 -60 -75 -87 -112 -105 -103 -52 -116 -88 -69 -194 l27 -59 -37 -80 c-77
-163 -84 -271 -36 -515 47 -235 44 -256 -58 -379 -57 -69 -58 -70 -142 -93
-47 -13 -138 -28 -203 -33 -144 -13 -214 -29 -360 -81 -61 -22 -120 -43 -129
-46 -10 -3 -20 -13 -23 -22 -3 -9 -27 -32 -53 -51 -26 -19 -108 -96 -183 -170
-319 -317 -419 -575 -523 -1342 l-26 -187 -61 -93 c-79 -120 -120 -202 -175
-350 -73 -194 -76 -248 -28 -391 13 -39 24 -74 24 -79 0 -12 -64 -38 -94 -38
-30 0 -46 25 -46 72 0 32 0 32 -16 10 -19 -27 -12 -54 26 -102 22 -29 28 -48
33 -112 4 -53 2 -80 -6 -86 -7 -5 -56 -24 -110 -43 -93 -32 -98 -35 -107 -69
-5 -19 -50 -209 -100 -421 l-91 -386 78 -76 c43 -41 97 -90 120 -109 23 -18
44 -37 46 -43 2 -5 -15 -104 -38 -220 -41 -203 -153 -800 -194 -1035 -12 -63
-59 -349 -105 -635 -107 -656 -139 -830 -287 -1574 -202 -1016 -243 -1288
-243 -1636 -1 -254 13 -358 75 -576 l39 -136 -16 -109 c-9 -60 -17 -172 -18
-249 -1 -135 0 -142 28 -198 32 -67 84 -107 176 -135 80 -24 300 -23 397 1
205 53 237 152 139 432 -52 148 -77 310 -55 351 6 13 40 46 75 74 71 58 104
104 104 146 0 16 -26 83 -57 149 l-58 120 1 115 c0 101 4 124 28 190 45 119
119 259 235 444 362 578 399 693 565 1758 l54 343 142 255 c273 489 378 666
519 870 50 72 86 135 86 149 0 32 22 38 34 9 6 -13 197 -680 425 -1483 372
-1310 434 -1537 600 -2215 102 -415 189 -780 195 -810 31 -175 105 -214 447
-239 l121 -9 149 -80 c433 -234 660 -253 883 -74 80 65 119 150 91 202 -17 32
-88 66 -230 111 -291 90 -327 125 -500 476 -66 135 -120 248 -120 253 0 4 19
36 42 70 32 49 43 75 46 115 5 61 -6 86 -88 200 -109 152 -121 198 -107 415
14 231 22 773 15 1020 -9 350 -41 609 -129 1075 -84 438 -369 1401 -623 2101
l-77 211 21 48 c35 82 37 126 6 188 -14 30 -45 76 -67 101 -57 65 -48 71 88
56 336 -36 509 -76 658 -150 105 -53 198 -115 193 -130 -2 -5 -90 -102 -197
-215 l-193 -208 6 -39 c11 -67 33 -97 89 -124 29 -13 59 -24 68 -24 9 0 132
130 274 289 l259 289 55 7 c84 10 117 28 141 74 20 40 21 40 64 35 39 -6 44
-4 49 17 4 13 7 40 7 60 0 31 7 42 49 77 53 45 64 73 52 139 -5 23 -5 46 -2
52 4 5 33 11 66 13 l60 3 0 72 0 72 729 886 c467 567 736 887 750 889 11 3 57
7 100 10 144 11 221 67 276 202 17 41 29 54 65 72 48 23 65 59 65 135 0 35 7
46 76 112 88 83 89 97 10 133 -24 12 -48 26 -51 33 -4 6 6 25 22 42 16 18 258
320 538 672 279 352 518 651 531 665 23 24 25 24 53 7 16 -9 31 -17 34 -17 3
0 45 50 93 110 49 61 95 110 103 110 7 0 64 -33 125 -73 210 -139 354 -265
763 -671 167 -165 305 -298 307 -295 8 8 -407 502 -630 749 -136 151 -372 385
-436 434 -21 16 -38 34 -38 42 0 7 25 41 55 76 30 34 55 68 55 75 0 23 -86
138 -127 169 -22 17 -76 46 -119 64 l-79 32 -60 -66 c-33 -36 -65 -66 -71 -66
-7 0 -95 56 -195 124 -388 261 -661 408 -1059 568 -203 82 -311 116 -265 84z
m-2753 -3642 c71 -37 137 -116 222 -266 16 -28 34 -48 44 -48 9 0 100 16 201
35 l184 34 86 -62 c163 -119 263 -172 381 -204 67 -17 293 -24 460 -13 66 4
75 3 75 -12 0 -10 -184 -252 -410 -539 l-410 -521 -77 6 c-130 11 -246 -15
-438 -99 -78 -34 -88 -36 -120 -25 -290 101 -633 239 -767 309 -96 51 -223
138 -223 154 0 21 734 1267 747 1267 8 0 28 -7 45 -16z"/>
</g>
</svg>
